<?xml version="1.0" encoding="utf-8"?>
<!-- Generator: Adobe Illustrator 21.1.0, SVG Export Plug-In . SVG Version: 6.00 Build 0)  -->
<svg version="1.1" id="Layer_1" xmlns="http://www.w3.org/2000/svg" xmlns:xlink="http://www.w3.org/1999/xlink" x="0px" y="0px"
	 viewBox="0 0 200 200" enable-background="new 0 0 200 200" xml:space="preserve">
<g>
	<polygon fill="#FF7661" points="136.9,23.8 99.9,2.5 99.9,45.2 	"/>
	<path fill="#FF7661" d="M100,197.5c-48.8,0-88.6-39.7-88.6-88.6c0-48.8,39.7-88.6,88.6-88.6c2,0,3.6,1.6,3.6,3.6s-1.6,3.6-3.6,3.6
		c-44.9,0-81.4,36.5-81.4,81.4c0,44.9,36.5,81.4,81.4,81.4c44.9,0,81.4-36.5,81.4-81.4c0-2,1.6-3.6,3.6-3.6c2,0,3.6,1.6,3.6,3.6
		C188.6,157.8,148.8,197.5,100,197.5z"/>
</g>
</svg>
