<?xml version="1.0" encoding="utf-8"?>
<!-- Generator: Adobe Illustrator 21.1.0, SVG Export Plug-In . SVG Version: 6.00 Build 0)  -->
<svg version="1.1" id="Layer_1" xmlns="http://www.w3.org/2000/svg" xmlns:xlink="http://www.w3.org/1999/xlink" x="0px" y="0px"
	 viewBox="0 0 200 200" enable-background="new 0 0 200 200" xml:space="preserve">
<g>
	<g>
		<g>
			<g>
				<path fill="#FF7661" d="M179.3,138H19.8c-0.9,0-1.7-0.8-1.7-1.7V3.2c0-0.9,0.8-1.7,1.7-1.7h159.5c0.9,0,1.7,0.8,1.7,1.7v133.1
					C181,137.2,180.2,138,179.3,138z M21.5,134.6h156.1V4.9H21.5V134.6z"/>
			</g>
			<g>
				<path fill="#FF7661" d="M186.2,145.5H13.8c-0.8,0-1.5-0.6-1.5-1.3c0-0.7,0.7-1.3,1.5-1.3h172.4c0.8,0,1.5,0.6,1.5,1.3
					C187.7,144.9,187,145.5,186.2,145.5z"/>
			</g>
			<g>
				<path fill="#FF7661" d="M33.6,198.5c-0.2,0-0.4,0-0.6-0.1c-0.9-0.4-1.3-1.3-0.9-2.2l21.7-52c0.4-0.9,1.3-1.3,2.2-0.9
					c0.9,0.4,1.3,1.3,0.9,2.2l-21.7,52C34.9,198.1,34.3,198.5,33.6,198.5z"/>
			</g>
			<g>
				<path fill="#FF7661" d="M165.5,198.5c-0.7,0-1.3-0.4-1.6-1l-21.7-52c-0.4-0.9,0-1.8,0.9-2.2c0.9-0.4,1.8,0,2.2,0.9l21.7,52
					c0.4,0.9,0,1.8-0.9,2.2C166,198.5,165.7,198.5,165.5,198.5z"/>
			</g>
		</g>
	</g>
	<path fill="#FF7661" d="M56.9,132.4H32.4c-0.8,0-1.4-0.6-1.4-1.4c0-0.8,0.6-1.4,1.4-1.4h24.4c0.8,0,1.4,0.6,1.4,1.4
		C58.3,131.7,57.7,132.4,56.9,132.4z"/>
</g>
</svg>
