<?xml version="1.0" encoding="utf-8"?>
<!-- Generator: Adobe Illustrator 21.1.0, SVG Export Plug-In . SVG Version: 6.00 Build 0)  -->
<svg version="1.1" id="Layer_1" xmlns="http://www.w3.org/2000/svg" xmlns:xlink="http://www.w3.org/1999/xlink" x="0px" y="0px"
	 viewBox="0 0 200 200" enable-background="new 0 0 200 200" xml:space="preserve">
<g>
	<path fill="#FF7661" d="M62.8,107.2H45.9c-0.7,0-1.4-0.6-1.4-1.4s0.6-1.4,1.4-1.4h16.9c0.7,0,1.4,0.6,1.4,1.4
		S63.5,107.2,62.8,107.2z"/>
	<path fill="#FF7661" d="M152.8,107.2h-16.9c-0.7,0-1.4-0.6-1.4-1.4s0.6-1.4,1.4-1.4h16.9c0.7,0,1.4,0.6,1.4,1.4
		S153.5,107.2,152.8,107.2z"/>
	<path fill="#FF7661" d="M151.7,147.4H48.3c-0.7,0-1.4-0.6-1.4-1.4c0-0.7,0.6-1.4,1.4-1.4h103.4c0.7,0,1.4,0.6,1.4,1.4
		C153,146.8,152.4,147.4,151.7,147.4z"/>
	<path fill="#FF7661" d="M156.6,66.9H43.4c-0.7,0-1.4-0.6-1.4-1.4s0.6-1.4,1.4-1.4h113.1c0.7,0,1.4,0.6,1.4,1.4
		S157.3,66.9,156.6,66.9z"/>
	<path fill="#FF7661" d="M145.9,184.2H54.1c-2.7,0-4.9-2.1-5.1-4.8L39.9,29.4c0-0.4,0.1-0.7,0.4-1s0.6-0.4,1-0.4h117.5
		c0.4,0,0.7,0.2,1,0.4s0.4,0.6,0.4,1L151,179.5C150.8,182.1,148.6,184.2,145.9,184.2z M42.7,30.7l9,148.6c0.1,1.2,1.1,2.2,2.4,2.2
		h91.9c1.2,0,2.3-1,2.4-2.2l9-148.6H42.7z"/>
	<path fill="#FF7661" d="M163.5,30.7h-127c-2.2,0-3.9-1.8-3.9-3.9v-7.9c0-2.2,1.8-3.9,3.9-3.9h127c2.2,0,3.9,1.8,3.9,3.9v7.9
		C167.4,28.9,165.6,30.7,163.5,30.7z M36.5,17.6c-0.7,0-1.2,0.6-1.2,1.2v7.9c0,0.7,0.6,1.2,1.2,1.2h127c0.7,0,1.2-0.6,1.2-1.2v-7.9
		c0-0.7-0.6-1.2-1.2-1.2H36.5z"/>
	<path fill="#FF7661" d="M158.8,17.6H41.2c-0.7,0-1.4-0.6-1.4-1.4V9.6c0-3.6,2.9-6.6,6.6-6.6h107.1c3.6,0,6.6,2.9,6.6,6.6v6.7
		C160.1,17,159.5,17.6,158.8,17.6z M42.6,14.9h114.8V9.6c0-2.1-1.7-3.9-3.9-3.9H46.5c-2.1,0-3.9,1.7-3.9,3.9V14.9z"/>
	<path fill="#FF7661" d="M138.7,197H61.3c-3.8,0-7-3.1-7-7v-7.1c0-0.7,0.6-1.4,1.4-1.4h88.6c0.7,0,1.4,0.6,1.4,1.4v7.1
		C145.7,193.9,142.5,197,138.7,197z M57,184.2v5.8c0,2.3,1.9,4.3,4.3,4.3h77.4c2.3,0,4.3-1.9,4.3-4.3v-5.8H57z"/>
	<g>
		<path fill="#FF7661" d="M86.7,120.8c-0.6,0-1.2-0.4-1.3-1.1c-0.2-0.7,0.3-1.5,1-1.6c0.1,0,12.1-2.8,12.1-11.9
			c0-11.2,13.7-14.4,14.3-14.5c0.7-0.2,1.4,0.3,1.6,1c0.2,0.7-0.3,1.5-1,1.6c-0.1,0-12.1,2.8-12.1,11.9c0,11.2-13.7,14.4-14.3,14.5
			C86.9,120.8,86.8,120.8,86.7,120.8z"/>
		<path fill="#FF7661" d="M95.1,124c-3.7,0-7-1.3-9.3-3.6c-2.9-2.9-4.1-7.2-3.4-11.9c0.7-4.6,3.1-9.2,6.8-13
			c7.8-7.8,19-9.3,24.9-3.4c5.9,5.9,4.4,17.1-3.4,24.9c-3.7,3.7-8.3,6.2-13,6.8C96.8,124,96,124,95.1,124z M104.7,91.2
			c-4.4,0-9.5,2.2-13.6,6.3c-3.3,3.3-5.5,7.4-6.1,11.4c-0.6,3.9,0.4,7.3,2.7,9.6c2.3,2.3,5.7,3.3,9.6,2.7c4.1-0.6,8.1-2.8,11.4-6.1
			c6.7-6.7,8.3-16.2,3.4-21.1C110.2,92.1,107.6,91.2,104.7,91.2z"/>
	</g>
	<g>
		<path fill="#FF7661" d="M69.2,197c-0.7,0-1.4-0.6-1.4-1.4v-12.8c0-0.7,0.6-1.4,1.4-1.4s1.4,0.6,1.4,1.4v12.8
			C70.5,196.4,69.9,197,69.2,197z"/>
		<path fill="#FF7661" d="M81.5,197c-0.7,0-1.4-0.6-1.4-1.4v-12.8c0-0.7,0.6-1.4,1.4-1.4s1.4,0.6,1.4,1.4v12.8
			C82.8,196.4,82.2,197,81.5,197z"/>
		<path fill="#FF7661" d="M93.8,197c-0.7,0-1.4-0.6-1.4-1.4v-12.8c0-0.7,0.6-1.4,1.4-1.4c0.7,0,1.4,0.6,1.4,1.4v12.8
			C95.2,196.4,94.6,197,93.8,197z"/>
		<path fill="#FF7661" d="M106.2,197c-0.7,0-1.4-0.6-1.4-1.4v-12.8c0-0.7,0.6-1.4,1.4-1.4c0.7,0,1.4,0.6,1.4,1.4v12.8
			C107.5,196.4,106.9,197,106.2,197z"/>
		<path fill="#FF7661" d="M118.5,197c-0.7,0-1.4-0.6-1.4-1.4v-12.8c0-0.7,0.6-1.4,1.4-1.4s1.4,0.6,1.4,1.4v12.8
			C119.9,196.4,119.3,197,118.5,197z"/>
		<path fill="#FF7661" d="M130.8,197c-0.7,0-1.4-0.6-1.4-1.4v-12.8c0-0.7,0.6-1.4,1.4-1.4c0.7,0,1.4,0.6,1.4,1.4v12.8
			C132.2,196.4,131.6,197,130.8,197z"/>
	</g>
</g>
</svg>
