<?xml version="1.0" encoding="utf-8"?>
<!-- Generator: Adobe Illustrator 21.1.0, SVG Export Plug-In . SVG Version: 6.00 Build 0)  -->
<svg version="1.1" id="Layer_1" xmlns="http://www.w3.org/2000/svg" xmlns:xlink="http://www.w3.org/1999/xlink" x="0px" y="0px"
	 viewBox="0 0 200 200" enable-background="new 0 0 200 200" xml:space="preserve">
<g>
	<path fill="#FF7661" d="M171.9,107.8H125c-0.7,0-1.3-0.6-1.3-1.3s0.6-1.3,1.3-1.3h46.9c3.2,0,5.9-2.6,5.9-5.9v-90
		c0-3.2-2.6-5.9-5.9-5.9H28.5c-3.2,0-5.9,2.6-5.9,5.9v90c0,3.2,2.6,5.9,5.9,5.9h46.7c0.7,0,1.3,0.6,1.3,1.3s-0.6,1.3-1.3,1.3H28.5
		c-4.6,0-8.4-3.8-8.4-8.4v-90c0-4.6,3.8-8.4,8.4-8.4h143.4c4.6,0,8.4,3.8,8.4,8.4v90C180.3,104,176.6,107.8,171.9,107.8z"/>
	<path fill="#FF7661" d="M100,56.3c-8.3,0-15-6.7-15-15s6.7-15,15-15s15,6.7,15,15S108.3,56.3,100,56.3z M100,28.8
		c-6.9,0-12.5,5.6-12.5,12.5c0,6.9,5.6,12.5,12.5,12.5c6.9,0,12.5-5.6,12.5-12.5C112.5,34.4,106.9,28.8,100,28.8z"/>
	<path fill="#FF7661" d="M85,76.5h-4.2c-0.7,0-1.3-0.6-1.3-1.3s0.6-1.3,1.3-1.3H85c0.7,0,1.3,0.6,1.3,1.3S85.7,76.5,85,76.5z"/>
	<path fill="#FF7661" d="M115.2,76.5H85c-0.7,0-1.3-0.6-1.3-1.3s0.6-1.3,1.3-1.3h30.2c0.7,0,1.3,0.6,1.3,1.3S115.9,76.5,115.2,76.5z
		"/>
	<path fill="#FF7661" d="M119.4,76.5h-4.2c-0.7,0-1.3-0.6-1.3-1.3s0.6-1.3,1.3-1.3h4.2c0.7,0,1.3,0.6,1.3,1.3S120.1,76.5,119.4,76.5
		z"/>
	<path fill="#FF7661" d="M124.4,76.5h-5c-0.7,0-1.3-0.6-1.3-1.3s0.6-1.3,1.3-1.3h5c0.7,0,1.3,0.6,1.3,1.3S125.1,76.5,124.4,76.5z"/>
	<path fill="#FF7661" d="M132,95.6h-7c-0.7,0-1.3-0.6-1.3-1.3s0.6-1.3,1.3-1.3h6.1l5.9-16.6h-12.7c-0.7,0-1.3-0.6-1.3-1.3
		s0.6-1.3,1.3-1.3h14.5c0.4,0,0.8,0.2,1,0.5c0.2,0.3,0.3,0.8,0.2,1.2l-6.8,19.1C133,95.3,132.6,95.6,132,95.6z"/>
	<path fill="#FF7661" d="M75.3,95.6h-6.6c-0.5,0-1-0.3-1.2-0.8l-7.2-19.1c-0.1-0.4-0.1-0.8,0.1-1.2c0.2-0.3,0.6-0.5,1-0.5h14.7
		c0.7,0,1.3,0.6,1.3,1.3s-0.6,1.3-1.3,1.3H63.3l6.3,16.6h5.7c0.7,0,1.3,0.6,1.3,1.3S76,95.6,75.3,95.6z"/>
	<path fill="#FF7661" d="M80.8,76.5h-4.7c-0.7,0-1.3-0.6-1.3-1.3s0.6-1.3,1.3-1.3h4.7c0.7,0,1.3,0.6,1.3,1.3S81.5,76.5,80.8,76.5z"
		/>
	<path fill="#FF7661" d="M122.1,85.8H78.2c-0.7,0-1.3-0.6-1.3-1.3s0.6-1.3,1.3-1.3h43.9c0.7,0,1.3,0.6,1.3,1.3
		S122.8,85.8,122.1,85.8z"/>
	<path fill="#FF7661" d="M125,95.6c-0.7,0-1.3-0.6-1.3-1.3v-8.5h-1.6c-0.7,0-1.3-0.6-1.3-1.3s0.6-1.3,1.3-1.3h2.9
		c0.7,0,1.3,0.6,1.3,1.3v9.8C126.3,95,125.7,95.6,125,95.6z"/>
	<path fill="#FF7661" d="M75.3,95.6c-0.7,0-1.3-0.6-1.3-1.3v-9.8c0-0.7,0.6-1.3,1.3-1.3h2.9c0.7,0,1.3,0.6,1.3,1.3s-0.6,1.3-1.3,1.3
		h-1.6v8.5C76.5,95,76,95.6,75.3,95.6z"/>
	<path fill="#FF7661" d="M86.7,149.2H75.3c-0.7,0-1.3-0.6-1.3-1.3v-41.4c0-0.7,0.6-1.3,1.3-1.3s1.3,0.6,1.3,1.3v40.1h10.2
		c0.7,0,1.3,0.6,1.3,1.3S87.4,149.2,86.7,149.2z"/>
	<path fill="#FF7661" d="M125,149.2h-11.7c-0.7,0-1.3-0.6-1.3-1.3s0.6-1.3,1.3-1.3h10.4v-40.1c0-0.7,0.6-1.3,1.3-1.3
		s1.3,0.6,1.3,1.3v41.4C126.3,148.6,125.7,149.2,125,149.2z"/>
	<path fill="#FF7661" d="M125,107.8c-0.7,0-1.3-0.6-1.3-1.3V94.3c0-0.7,0.6-1.3,1.3-1.3s1.3,0.6,1.3,1.3v12.2
		C126.3,107.2,125.7,107.8,125,107.8z"/>
	<path fill="#FF7661" d="M75.3,107.8c-0.7,0-1.3-0.6-1.3-1.3V94.3c0-0.7,0.6-1.3,1.3-1.3s1.3,0.6,1.3,1.3v12.2
		C76.5,107.2,76,107.8,75.3,107.8z"/>
	<path fill="#FF7661" d="M124.4,76.5c-0.5,0-0.9-0.3-1.1-0.7c-5.2-11-13.8-17.6-23-17.6s-17.7,6.6-23,17.6c-0.3,0.6-1.1,0.9-1.7,0.6
		C75,76,74.7,75.3,75,74.7c5.7-11.9,15.1-19,25.2-19s19.6,7.1,25.2,19c0.3,0.6,0,1.4-0.6,1.7C124.7,76.4,124.6,76.5,124.4,76.5z"/>
	<path fill="#FF7661" d="M115.2,76.5c-0.7,0-1.3-0.6-1.3-1.3v-4.3c0-0.7,0.6-1.3,1.3-1.3s1.3,0.6,1.3,1.3v4.3
		C116.5,75.9,115.9,76.5,115.2,76.5z"/>
	<path fill="#FF7661" d="M85,76.5c-0.7,0-1.3-0.6-1.3-1.3v-4.3c0-0.7,0.6-1.3,1.3-1.3s1.3,0.6,1.3,1.3v4.3
		C86.3,75.9,85.7,76.5,85,76.5z"/>
	<path fill="#FF7661" d="M78.1,182.9c-0.2,0-0.4,0-0.6-0.1c-5.7-2.8-12-2.8-17.6,0c-0.6,0.3-1.4,0-1.7-0.6c-0.3-0.6,0-1.4,0.6-1.7
		c6.4-3.1,13.5-3.1,19.9,0c0.6,0.3,0.9,1.1,0.6,1.7C79,182.7,78.5,182.9,78.1,182.9z"/>
	<path fill="#FF7661" d="M92.8,199c-0.5,0-0.9-0.3-1.1-0.7c-3.4-7.2-8.5-12.7-14.1-15.5c-0.6-0.3-0.9-1.1-0.6-1.7
		c0.3-0.6,1.1-0.9,1.7-0.6c6.2,3,11.6,8.9,15.3,16.7c0.3,0.6,0,1.4-0.6,1.7C93.2,199,93,199,92.8,199z"/>
	<path fill="#FF7661" d="M44.6,199c-0.2,0-0.4,0-0.5-0.1c-0.6-0.3-0.9-1.1-0.6-1.7c3.7-7.7,9.1-13.6,15.3-16.7
		c0.6-0.3,1.4,0,1.7,0.6c0.3,0.6,0,1.4-0.6,1.7c-5.7,2.8-10.7,8.3-14.1,15.5C45.5,198.7,45.1,199,44.6,199z"/>
	<path fill="#FF7661" d="M68.4,178.8c-8.3,0-15-6.7-15-15c0-8.3,6.7-15,15-15s15,6.7,15,15C83.4,172.1,76.7,178.8,68.4,178.8z
		 M68.4,151.4c-6.9,0-12.5,5.6-12.5,12.5c0,6.9,5.6,12.5,12.5,12.5s12.5-5.6,12.5-12.5C80.9,157,75.3,151.4,68.4,151.4z"/>
	<path fill="#FF7661" d="M155.4,199c-0.5,0-0.9-0.3-1.1-0.7c-3.4-7.2-8.5-12.7-14.1-15.5c-0.6-0.3-0.9-1.1-0.6-1.7
		c0.3-0.6,1.1-0.9,1.7-0.6c6.2,3,11.6,8.9,15.3,16.7c0.3,0.6,0,1.4-0.6,1.7C155.8,199,155.6,199,155.4,199z"/>
	<path fill="#FF7661" d="M140.7,182.9c-0.2,0-0.4,0-0.6-0.1c-5.6-2.7-11.7-2.8-17.2-0.2c-0.6,0.3-1.4,0-1.7-0.6
		c-0.3-0.6,0-1.4,0.6-1.7c6.2-2.9,13.2-2.8,19.4,0.2c0.6,0.3,0.9,1.1,0.6,1.7C141.6,182.7,141.2,182.9,140.7,182.9z"/>
	<path fill="#FF7661" d="M107.2,199c-0.2,0-0.4,0-0.5-0.1c-0.6-0.3-0.9-1.1-0.6-1.7c3.8-7.9,9.4-13.9,15.8-16.9
		c0.6-0.3,1.4,0,1.7,0.6c0.3,0.6,0,1.4-0.6,1.7c-5.8,2.7-11,8.3-14.5,15.7C108.1,198.7,107.7,199,107.2,199z"/>
	<path fill="#FF7661" d="M131.1,178.8c-8.3,0-15-6.7-15-15c0-8.3,6.7-15,15-15c8.3,0,15,6.7,15,15
		C146.1,172.1,139.3,178.8,131.1,178.8z M131.1,151.4c-6.9,0-12.5,5.6-12.5,12.5c0,6.9,5.6,12.5,12.5,12.5c6.9,0,12.5-5.6,12.5-12.5
		C143.5,157,137.9,151.4,131.1,151.4z"/>
	<path fill="#FF7661" d="M78.1,182.9c-0.2,0-0.4-0.1-0.6-0.2c-0.6-0.4-0.8-1.1-0.4-1.7c5.8-9.8,14.3-15.4,23.3-15.4
		c8.9,0,17.4,5.5,23.2,15.2c0.4,0.6,0.2,1.4-0.4,1.7c-0.6,0.4-1.4,0.2-1.7-0.4c-5.3-8.8-13-13.9-21-13.9c-8.1,0-15.8,5.1-21.1,14.1
		C78.9,182.7,78.5,182.9,78.1,182.9z"/>
	<path fill="#FF7661" d="M100,166.3c-8.3,0-15-6.7-15-15c0-1.2,0.2-2.5,0.5-3.7c0.2-0.7,0.9-1.1,1.5-0.9c0.7,0.2,1.1,0.9,0.9,1.5
		c-0.3,1-0.4,2-0.4,3.1c0,6.9,5.6,12.5,12.5,12.5c6.9,0,12.5-5.6,12.5-12.5c0-1-0.1-2.1-0.4-3.1c-0.2-0.7,0.2-1.4,0.9-1.5
		c0.7-0.2,1.4,0.2,1.5,0.9c0.3,1.2,0.5,2.4,0.5,3.7C115,159.6,108.3,166.3,100,166.3z"/>
	<path fill="#FF7661" d="M113.3,149.2c-0.6,0-1.1-0.4-1.2-1c-1.4-5.5-6.4-9.4-12.1-9.4c-5.7,0-10.7,3.9-12.1,9.4
		c-0.2,0.7-0.9,1.1-1.5,0.9c-0.7-0.2-1.1-0.9-0.9-1.5c1.7-6.7,7.7-11.3,14.5-11.3c6.9,0,12.8,4.6,14.5,11.3c0.2,0.7-0.2,1.4-0.9,1.5
		C113.5,149.2,113.4,149.2,113.3,149.2z"/>
	<path fill="#FF7661" d="M187,186.5c-0.5,0-0.9-0.3-1.1-0.7c-5.2-11-13.8-17.6-23-17.6c-8.1,0-15.8,5.1-21.1,14.1
		c-0.4,0.6-1.1,0.8-1.7,0.4c-0.6-0.4-0.8-1.1-0.4-1.7c5.8-9.8,14.3-15.4,23.3-15.4c10.1,0,19.6,7.1,25.2,19c0.3,0.6,0,1.4-0.6,1.7
		C187.4,186.4,187.2,186.5,187,186.5z"/>
	<path fill="#FF7661" d="M162.7,166.3c-8.3,0-15-6.7-15-15s6.7-15,15-15c8.3,0,15,6.7,15,15S170.9,166.3,162.7,166.3z M162.7,138.8
		c-6.9,0-12.5,5.6-12.5,12.5s5.6,12.5,12.5,12.5c6.9,0,12.5-5.6,12.5-12.5S169.5,138.8,162.7,138.8z"/>
	<path fill="#FF7661" d="M13,186.5c-0.2,0-0.4,0-0.5-0.1c-0.6-0.3-0.9-1.1-0.6-1.7c5.7-11.9,15.1-19,25.2-19c9,0,17.5,5.6,23.3,15.4
		c0.4,0.6,0.2,1.4-0.4,1.7c-0.6,0.4-1.4,0.2-1.7-0.4c-5.3-9-13-14.1-21.1-14.1c-9.1,0-17.7,6.6-23,17.6
		C13.9,186.2,13.5,186.5,13,186.5z"/>
	<path fill="#FF7661" d="M36.9,166.3c-8.3,0-15-6.7-15-15s6.7-15,15-15s15,6.7,15,15S45.1,166.3,36.9,166.3z M36.9,138.8
		c-6.9,0-12.5,5.6-12.5,12.5s5.6,12.5,12.5,12.5s12.5-5.6,12.5-12.5S43.7,138.8,36.9,138.8z"/>
</g>
</svg>
