<?xml version="1.0" encoding="utf-8"?>
<!-- Generator: Adobe Illustrator 21.1.0, SVG Export Plug-In . SVG Version: 6.00 Build 0)  -->
<svg version="1.1" id="Layer_1" xmlns="http://www.w3.org/2000/svg" xmlns:xlink="http://www.w3.org/1999/xlink" x="0px" y="0px"
	 viewBox="0 0 200 200" enable-background="new 0 0 200 200" xml:space="preserve">
<g>
	<path fill="#FF7661" d="M45.6,198.5H38c-0.7,0-1.3-0.6-1.3-1.3V18.1c0-0.7,0.6-1.3,1.3-1.3h7.7c0.7,0,1.3,0.6,1.3,1.3v179.1
		C46.9,197.9,46.3,198.5,45.6,198.5z M39.2,195.9h5.1V19.4h-5.1V195.9z"/>
	<path fill="#FF7661" d="M162,198.5h-7.7c-0.7,0-1.3-0.6-1.3-1.3V18.1c0-0.7,0.6-1.3,1.3-1.3h7.7c0.7,0,1.3,0.6,1.3,1.3v179.1
		C163.3,197.9,162.7,198.5,162,198.5z M155.6,195.9h5.1V19.4h-5.1V195.9z"/>
	<path fill="#FF7661" d="M154.4,46.3H45.6c-0.7,0-1.3-0.6-1.3-1.3v-7.7c0-0.7,0.6-1.3,1.3-1.3h108.7c0.7,0,1.3,0.6,1.3,1.3V45
		C155.6,45.7,155.1,46.3,154.4,46.3z M46.9,43.7h106.2v-5.1H46.9V43.7z"/>
	<path fill="#FF7661" d="M154.4,92.3H45.6c-0.7,0-1.3-0.6-1.3-1.3v-7.7c0-0.7,0.6-1.3,1.3-1.3h108.7c0.7,0,1.3,0.6,1.3,1.3V91
		C155.6,91.8,155.1,92.3,154.4,92.3z M46.9,89.8h106.2v-5.1H46.9V89.8z"/>
	<path fill="#FF7661" d="M154.4,138.4H45.6c-0.7,0-1.3-0.6-1.3-1.3v-7.7c0-0.7,0.6-1.3,1.3-1.3h108.7c0.7,0,1.3,0.6,1.3,1.3v7.7
		C155.6,137.8,155.1,138.4,154.4,138.4z M46.9,135.8h106.2v-5.1H46.9V135.8z"/>
	<path fill="#FF7661" d="M154.4,184.4H45.6c-0.7,0-1.3-0.6-1.3-1.3v-7.7c0-0.7,0.6-1.3,1.3-1.3h108.7c0.7,0,1.3,0.6,1.3,1.3v7.7
		C155.6,183.9,155.1,184.4,154.4,184.4z M46.9,181.9h106.2v-5.1H46.9V181.9z"/>
	<path fill="#FF7661" d="M57.1,38.6H45.6c-0.7,0-1.3-0.6-1.3-1.3V2.8c0-0.7,0.6-1.3,1.3-1.3h11.5c0.7,0,1.3,0.6,1.3,1.3v34.5
		C58.4,38,57.9,38.6,57.1,38.6z M46.9,36h9v-32h-9V36z"/>
	<path fill="#FF7661" d="M62.3,38.6h-5.1c-0.7,0-1.3-0.6-1.3-1.3V9.2c0-0.7,0.6-1.3,1.3-1.3h5.1c0.7,0,1.3,0.6,1.3,1.3v28.1
		C63.5,38,63,38.6,62.3,38.6z M58.4,36H61V10.5h-2.6V36z"/>
	<path fill="#FF7661" d="M70.5,38.6h-8.2c-0.7,0-1.3-0.6-1.3-1.3V2.8c0-0.7,0.6-1.3,1.3-1.3h8.2c0.7,0,1.3,0.6,1.3,1.3v34.5
		C71.8,38,71.2,38.6,70.5,38.6z M63.5,36h5.7v-32h-5.7V36z"/>
	<path fill="#FF7661" d="M75.1,38.6h-3.7c-0.7,0-1.3-0.6-1.3-1.3V9.2c0-0.7,0.6-1.3,1.3-1.3h3.7c0.7,0,1.3,0.6,1.3,1.3v28.1
		C76.3,38,75.8,38.6,75.1,38.6z M72.7,36h1.1V10.5h-1.1V36z"/>
	<path fill="#FF7661" d="M91.1,38.6h-16c-0.7,0-1.3-0.6-1.3-1.3V15.6c0-0.7,0.6-1.3,1.3-1.3h16c0.7,0,1.3,0.6,1.3,1.3v21.7
		C92.4,38,91.8,38.6,91.1,38.6z M76.3,36h13.5V16.9H76.3V36z"/>
	<path fill="#FF7661" d="M98.2,38.6h-7.1c-0.7,0-1.3-0.6-1.3-1.3V9.2c0-0.7,0.6-1.3,1.3-1.3h7.1c0.7,0,1.3,0.6,1.3,1.3v28.1
		C99.5,38,98.9,38.6,98.2,38.6z M92.4,36h4.6V10.5h-4.6V36z"/>
	<path fill="#FF7661" d="M109.6,38.6H98.2c-0.7,0-1.3-0.6-1.3-1.3V2.8c0-0.7,0.6-1.3,1.3-1.3h11.4c0.7,0,1.3,0.6,1.3,1.3v34.5
		C110.9,38,110.3,38.6,109.6,38.6z M99.5,36h8.9v-32h-8.9V36z"/>
	<path fill="#FF7661" d="M116,38.6h-5.1c-0.7,0-1.3-0.6-1.3-1.3V9.2c0-0.7,0.6-1.3,1.3-1.3h5.1c0.7,0,1.3,0.6,1.3,1.3v28.1
		C117.3,38,116.7,38.6,116,38.6z M112.2,36h2.5V10.5h-2.5V36z"/>
	<path fill="#FF7661" d="M123.8,38.6h-7.1c-0.7,0-1.3-0.6-1.3-1.3V9.2c0-0.7,0.6-1.3,1.3-1.3h7.1c0.7,0,1.3,0.6,1.3,1.3v28.1
		C125.1,38,124.5,38.6,123.8,38.6z M117.9,36h4.6V10.5h-4.6V36z"/>
	<path fill="#FF7661" d="M135.2,38.6h-11.4c-0.7,0-1.3-0.6-1.3-1.3V2.8c0-0.7,0.6-1.3,1.3-1.3h11.4c0.7,0,1.3,0.6,1.3,1.3v34.5
		C136.5,38,135.9,38.6,135.2,38.6z M125.1,36h8.9v-32h-8.9V36z"/>
	<path fill="#FF7661" d="M141.6,38.6h-5.1c-0.7,0-1.3-0.6-1.3-1.3V9.2c0-0.7,0.6-1.3,1.3-1.3h5.1c0.7,0,1.3,0.6,1.3,1.3v28.1
		C142.9,38,142.3,38.6,141.6,38.6z M137.8,36h2.5V10.5h-2.5V36z"/>
	<path fill="#FF7661" d="M146.7,38.6h-5.1c-0.7,0-1.3-0.6-1.3-1.3V9.2c0-0.7,0.6-1.3,1.3-1.3h5.1c0.7,0,1.3,0.6,1.3,1.3v28.1
		C148,38,147.4,38.6,146.7,38.6z M142.9,36h2.5V10.5h-2.5V36z"/>
	<path fill="#FF7661" d="M151.8,38.6h-5.1c-0.7,0-1.3-0.6-1.3-1.3V9.2c0-0.7,0.6-1.3,1.3-1.3h5.1c0.7,0,1.3,0.6,1.3,1.3v28.1
		C153.1,38,152.5,38.6,151.8,38.6z M148,36h2.5V10.5H148V36z"/>
	<path fill="#FF7661" d="M52,130.7h-6.4c-0.7,0-1.3-0.6-1.3-1.3v-28.1c0-0.7,0.6-1.3,1.3-1.3H52c0.7,0,1.3,0.6,1.3,1.3v28.1
		C53.3,130.1,52.7,130.7,52,130.7z M46.9,128.1h3.8v-25.6h-3.8V128.1z"/>
	<path fill="#FF7661" d="M62.3,130.7h-5.1c-0.7,0-1.3-0.6-1.3-1.3v-22.9c0-0.7,0.6-1.3,1.3-1.3h5.1c0.7,0,1.3,0.6,1.3,1.3v22.9
		C63.5,130.1,63,130.7,62.3,130.7z M58.4,128.1H61v-20.4h-2.6V128.1z"/>
	<path fill="#FF7661" d="M70.5,130.7h-8.2c-0.7,0-1.3-0.6-1.3-1.3v-28.1c0-0.7,0.6-1.3,1.3-1.3h8.2c0.7,0,1.3,0.6,1.3,1.3v28.1
		C71.8,130.1,71.2,130.7,70.5,130.7z M63.5,128.1h5.7v-25.6h-5.7V128.1z"/>
	<path fill="#FF7661" d="M75.1,130.7h-3.7c-0.7,0-1.3-0.6-1.3-1.3v-22.9c0-0.7,0.6-1.3,1.3-1.3h3.7c0.7,0,1.3,0.6,1.3,1.3v22.9
		C76.3,130.1,75.8,130.7,75.1,130.7z M72.7,128.1h1.1v-20.4h-1.1V128.1z"/>
	<path fill="#FF7661" d="M81.5,130.7h-6.4c-0.7,0-1.3-0.6-1.3-1.3v-17.7c0-0.7,0.6-1.3,1.3-1.3h6.4c0.7,0,1.3,0.6,1.3,1.3v17.7
		C82.7,130.1,82.2,130.7,81.5,130.7z M76.3,128.1h3.8V113h-3.8V128.1z"/>
	<path fill="#FF7661" d="M87.8,130.7h-6.4c-0.7,0-1.3-0.6-1.3-1.3V94.9c0-0.7,0.6-1.3,1.3-1.3h6.4c0.7,0,1.3,0.6,1.3,1.3v34.5
		C89.1,130.1,88.6,130.7,87.8,130.7z M82.7,128.1h3.8v-32h-3.8V128.1z"/>
	<path fill="#FF7661" d="M98.2,130.7h-7.1c-0.7,0-1.3-0.6-1.3-1.3v-22.9c0-0.7,0.6-1.3,1.3-1.3h7.1c0.7,0,1.3,0.6,1.3,1.3v22.9
		C99.5,130.1,98.9,130.7,98.2,130.7z M92.4,128.1h4.6v-20.4h-4.6V128.1z"/>
	<path fill="#FF7661" d="M109.6,130.7H98.2c-0.7,0-1.3-0.6-1.3-1.3v-28.1c0-0.7,0.6-1.3,1.3-1.3h11.4c0.7,0,1.3,0.6,1.3,1.3v28.1
		C110.9,130.1,110.3,130.7,109.6,130.7z M99.5,128.1h8.9v-25.6h-8.9V128.1z"/>
	<path fill="#FF7661" d="M116,130.7h-5.1c-0.7,0-1.3-0.6-1.3-1.3v-22.9c0-0.7,0.6-1.3,1.3-1.3h5.1c0.7,0,1.3,0.6,1.3,1.3v22.9
		C117.3,130.1,116.7,130.7,116,130.7z M112.2,128.1h2.5v-20.4h-2.5V128.1z"/>
	<path fill="#FF7661" d="M123.8,130.7h-7.1c-0.7,0-1.3-0.6-1.3-1.3v-22.9c0-0.7,0.6-1.3,1.3-1.3h7.1c0.7,0,1.3,0.6,1.3,1.3v22.9
		C125.1,130.1,124.5,130.7,123.8,130.7z M117.9,128.1h4.6v-20.4h-4.6V128.1z"/>
	<path fill="#FF7661" d="M135.2,130.7h-11.4c-0.7,0-1.3-0.6-1.3-1.3v-28.1c0-0.7,0.6-1.3,1.3-1.3h11.4c0.7,0,1.3,0.6,1.3,1.3v28.1
		C136.5,130.1,135.9,130.7,135.2,130.7z M125.1,128.1h8.9v-25.6h-8.9V128.1z"/>
	<path fill="#FF7661" d="M141.6,130.7h-5.1c-0.7,0-1.3-0.6-1.3-1.3v-22.9c0-0.7,0.6-1.3,1.3-1.3h5.1c0.7,0,1.3,0.6,1.3,1.3v22.9
		C142.9,130.1,142.3,130.7,141.6,130.7z M137.8,128.1h2.5v-20.4h-2.5V128.1z"/>
	<path fill="#FF7661" d="M146.7,130.7h-5.1c-0.7,0-1.3-0.6-1.3-1.3v-22.9c0-0.7,0.6-1.3,1.3-1.3h5.1c0.7,0,1.3,0.6,1.3,1.3v22.9
		C148,130.1,147.4,130.7,146.7,130.7z M142.9,128.1h2.5v-20.4h-2.5V128.1z"/>
	<path fill="#FF7661" d="M151.8,130.7h-5.1c-0.7,0-1.3-0.6-1.3-1.3v-22.9c0-0.7,0.6-1.3,1.3-1.3h5.1c0.7,0,1.3,0.6,1.3,1.3v22.9
		C153.1,130.1,152.5,130.7,151.8,130.7z M148,128.1h2.5v-20.4H148V128.1z"/>
	<path fill="#FF7661" d="M141.6,176.8h-5.1c-0.7,0-1.3-0.6-1.3-1.3v-22.9c0-0.7,0.6-1.3,1.3-1.3h5.1c0.7,0,1.3,0.6,1.3,1.3v22.9
		C142.9,176.2,142.3,176.8,141.6,176.8z M137.8,174.2h2.5v-20.4h-2.5V174.2z"/>
	<path fill="#FF7661" d="M146.7,176.8h-5.1c-0.7,0-1.3-0.6-1.3-1.3v-22.9c0-0.7,0.6-1.3,1.3-1.3h5.1c0.7,0,1.3,0.6,1.3,1.3v22.9
		C148,176.2,147.4,176.8,146.7,176.8z M142.9,174.2h2.5v-20.4h-2.5V174.2z"/>
	<path fill="#FF7661" d="M151.8,176.8h-5.1c-0.7,0-1.3-0.6-1.3-1.3v-22.9c0-0.7,0.6-1.3,1.3-1.3h5.1c0.7,0,1.3,0.6,1.3,1.3v22.9
		C153.1,176.2,152.5,176.8,151.8,176.8z M148,174.2h2.5v-20.4H148V174.2z"/>
	<path fill="#FF7661" d="M126.2,176.8h-5.1c-0.7,0-1.3-0.6-1.3-1.3v-22.9c0-0.7,0.6-1.3,1.3-1.3h5.1c0.7,0,1.3,0.6,1.3,1.3v22.9
		C127.5,176.2,126.9,176.8,126.2,176.8z M122.4,174.2h2.5v-20.4h-2.5V174.2z"/>
	<path fill="#FF7661" d="M131.3,176.8h-5.1c-0.7,0-1.3-0.6-1.3-1.3v-22.9c0-0.7,0.6-1.3,1.3-1.3h5.1c0.7,0,1.3,0.6,1.3,1.3v22.9
		C132.6,176.2,132,176.8,131.3,176.8z M127.5,174.2h2.5v-20.4h-2.5V174.2z"/>
	<path fill="#FF7661" d="M136.5,176.8h-5.1c-0.7,0-1.3-0.6-1.3-1.3v-22.9c0-0.7,0.6-1.3,1.3-1.3h5.1c0.7,0,1.3,0.6,1.3,1.3v22.9
		C137.7,176.2,137.2,176.8,136.5,176.8z M132.7,174.2h2.5v-20.4h-2.5V174.2z"/>
	<path fill="#FF7661" d="M151.8,84.6h-11.5c-0.7,0-1.3-0.6-1.3-1.3V48.8c0-0.7,0.6-1.3,1.3-1.3h11.5c0.7,0,1.3,0.6,1.3,1.3v34.5
		C153.1,84.1,152.5,84.6,151.8,84.6z M141.6,82.1h9v-32h-9V82.1z"/>
	<path fill="#FF7661" d="M140.3,84.6h-5.1c-0.7,0-1.3-0.6-1.3-1.3V55.2c0-0.7,0.6-1.3,1.3-1.3h5.1c0.7,0,1.3,0.6,1.3,1.3v28.1
		C141.6,84.1,141,84.6,140.3,84.6z M136.5,82.1h2.6V56.5h-2.6V82.1z"/>
	<path fill="#FF7661" d="M135.2,84.6H127c-0.7,0-1.3-0.6-1.3-1.3V64.2c0-0.7,0.6-1.3,1.3-1.3h8.2c0.7,0,1.3,0.6,1.3,1.3v19.2
		C136.5,84.1,135.9,84.6,135.2,84.6z M128.2,82.1h5.7V65.5h-5.7V82.1z"/>
	<path fill="#FF7661" d="M126,84.6h-3.7c-0.7,0-1.3-0.6-1.3-1.3V55.2c0-0.7,0.6-1.3,1.3-1.3h3.7c0.7,0,1.3,0.6,1.3,1.3v28.1
		C127.3,84.1,126.7,84.6,126,84.6z M123.7,82.1h1.1V56.5h-1.1V82.1z"/>
	<path fill="#FF7661" d="M106.4,84.6h-7.1c-0.7,0-1.3-0.6-1.3-1.3V55.2c0-0.7,0.6-1.3,1.3-1.3h7.1c0.7,0,1.3,0.6,1.3,1.3v28.1
		C107.6,84.1,107.1,84.6,106.4,84.6z M100.5,82.1h4.6V56.5h-4.6V82.1z"/>
	<path fill="#FF7661" d="M99.2,84.6H87.8c-0.7,0-1.3-0.6-1.3-1.3V48.8c0-0.7,0.6-1.3,1.3-1.3h11.4c0.7,0,1.3,0.6,1.3,1.3v34.5
		C100.5,84.1,100,84.6,99.2,84.6z M89.1,82.1H98v-32h-8.9V82.1z"/>
	<path fill="#FF7661" d="M122.4,84.6H107c-0.7,0-1.3-0.6-1.3-1.3v-32c0-0.7,0.6-1.3,1.3-1.3h15.4c0.7,0,1.3,0.6,1.3,1.3v32
		C123.7,84.1,123.1,84.6,122.4,84.6z M108.3,82.1h12.8V52.7h-12.8V82.1z"/>
	<path fill="#FF7661" d="M86.5,84.6h-5.1c-0.7,0-1.3-0.6-1.3-1.3V55.2c0-0.7,0.6-1.3,1.3-1.3h5.1c0.7,0,1.3,0.6,1.3,1.3v28.1
		C87.8,84.1,87.2,84.6,86.5,84.6z M82.7,82.1h2.5V56.5h-2.5V82.1z"/>
	<path fill="#FF7661" d="M80.8,84.6h-7.1c-0.7,0-1.3-0.6-1.3-1.3V55.2c0-0.7,0.6-1.3,1.3-1.3h7.1c0.7,0,1.3,0.6,1.3,1.3v28.1
		C82.1,84.1,81.5,84.6,80.8,84.6z M74.9,82.1h4.6V56.5h-4.6V82.1z"/>
	<path fill="#FF7661" d="M73.7,84.6H62.2c-0.7,0-1.3-0.6-1.3-1.3V48.8c0-0.7,0.6-1.3,1.3-1.3h11.4c0.7,0,1.3,0.6,1.3,1.3v34.5
		C74.9,84.1,74.4,84.6,73.7,84.6z M63.5,82.1h8.9v-32h-8.9V82.1z"/>
	<path fill="#FF7661" d="M61,84.6H50.8c-0.7,0-1.3-0.6-1.3-1.3V55.2c0-0.7,0.6-1.3,1.3-1.3H61c0.7,0,1.3,0.6,1.3,1.3v28.1
		C62.2,84.1,61.7,84.6,61,84.6z M52,82.1h7.6V56.5H52V82.1z"/>
	<path fill="#FF7661" d="M50.7,84.6h-5.1c-0.7,0-1.3-0.6-1.3-1.3V55.2c0-0.7,0.6-1.3,1.3-1.3h5.1c0.7,0,1.3,0.6,1.3,1.3v28.1
		C52,84.1,51.4,84.6,50.7,84.6z M46.9,82.1h2.5V56.5h-2.5V82.1z"/>
	<path fill="#FF7661" d="M121.1,176.8H117c-0.7,0-1.3-0.6-1.3-1.3v-28.1c0-0.7,0.6-1.3,1.3-1.3h4.1c0.7,0,1.3,0.6,1.3,1.3v28.1
		C122.4,176.2,121.8,176.8,121.1,176.8z M118.3,174.2h1.5v-25.6h-1.5V174.2z"/>
	<path fill="#FF7661" d="M117,176.8h-6.6c-0.7,0-1.3-0.6-1.3-1.3v-19.2c0-0.7,0.6-1.3,1.3-1.3h6.6c0.7,0,1.3,0.6,1.3,1.3v19.2
		C118.3,176.2,117.7,176.8,117,176.8z M111.7,174.2h4v-16.6h-4V174.2z"/>
	<path fill="#FF7661" d="M94.1,176.8h-5.7c-0.7,0-1.3-0.6-1.3-1.3v-28.1c0-0.7,0.6-1.3,1.3-1.3h5.7c0.7,0,1.3,0.6,1.3,1.3v28.1
		C95.3,176.2,94.8,176.8,94.1,176.8z M89.7,174.2h3.1v-25.6h-3.1V174.2z"/>
	<path fill="#FF7661" d="M88.4,176.8h-9.1c-0.7,0-1.3-0.6-1.3-1.3v-34.5c0-0.7,0.6-1.3,1.3-1.3h9.1c0.7,0,1.3,0.6,1.3,1.3v34.5
		C89.7,176.2,89.1,176.8,88.4,176.8z M80.5,174.2h6.6v-32h-6.6V174.2z"/>
	<path fill="#FF7661" d="M106.8,176.8H94.6c-0.7,0-1.3-0.6-1.3-1.3v-32c0-0.7,0.6-1.3,1.3-1.3h12.3c0.7,0,1.3,0.6,1.3,1.3v32
		C108.1,176.2,107.5,176.8,106.8,176.8z M95.8,174.2h9.7v-29.4h-9.7V174.2z"/>
	<path fill="#FF7661" d="M78.2,176.8h-4.1c-0.7,0-1.3-0.6-1.3-1.3v-28.1c0-0.7,0.6-1.3,1.3-1.3h4.1c0.7,0,1.3,0.6,1.3,1.3v28.1
		C79.5,176.2,79,176.8,78.2,176.8z M75.5,174.2H77v-25.6h-1.5V174.2z"/>
	<path fill="#FF7661" d="M73.7,176.8H68c-0.7,0-1.3-0.6-1.3-1.3v-28.1c0-0.7,0.6-1.3,1.3-1.3h5.7c0.7,0,1.3,0.6,1.3,1.3v28.1
		C74.9,176.2,74.4,176.8,73.7,176.8z M69.3,174.2h3.1v-25.6h-3.1V174.2z"/>
	<path fill="#FF7661" d="M68,176.8h-9.1c-0.7,0-1.3-0.6-1.3-1.3v-34.5c0-0.7,0.6-1.3,1.3-1.3H68c0.7,0,1.3,0.6,1.3,1.3v34.5
		C69.3,176.2,68.7,176.8,68,176.8z M60.1,174.2h6.6v-32h-6.6V174.2z"/>
	<path fill="#FF7661" d="M57.8,176.8h-8.1c-0.7,0-1.3-0.6-1.3-1.3V164c0-0.7,0.6-1.3,1.3-1.3h8.1c0.7,0,1.3,0.6,1.3,1.3v11.5
		C59.1,176.2,58.6,176.8,57.8,176.8z M51,174.2h5.6v-9H51V174.2z"/>
	<path fill="#FF7661" d="M49.7,176.8h-4.1c-0.7,0-1.3-0.6-1.3-1.3V164c0-0.7,0.6-1.3,1.3-1.3h4.1c0.7,0,1.3,0.6,1.3,1.3v11.5
		C51,176.2,50.4,176.8,49.7,176.8z M46.9,174.2h1.5v-9h-1.5V174.2z"/>
</g>
</svg>
