<?xml version="1.0" encoding="utf-8"?>
<!-- Generator: Adobe Illustrator 21.1.0, SVG Export Plug-In . SVG Version: 6.00 Build 0)  -->
<svg version="1.1" id="Layer_1" xmlns="http://www.w3.org/2000/svg" xmlns:xlink="http://www.w3.org/1999/xlink" x="0px" y="0px"
	 viewBox="0 0 200 200" enable-background="new 0 0 200 200" xml:space="preserve">
<g>
	<g>
		<path fill="#FF7661" d="M102.3,159.7c-32.4,0-58.7-26.3-58.7-58.7c0-32.4,26.3-58.7,58.7-58.7c32.4,0,58.7,26.3,58.7,58.7
			C161,133.3,134.7,159.7,102.3,159.7z M102.3,44.8c-30.9,0-56.1,25.2-56.1,56.1S71.4,157,102.3,157s56.1-25.2,56.1-56.1
			S133.2,44.8,102.3,44.8z"/>
		<path fill="#FF7661" d="M102.3,145.3c-24.5,0-44.4-19.9-44.4-44.4s19.9-44.4,44.4-44.4s44.4,19.9,44.4,44.4
			S126.8,145.3,102.3,145.3z M102.3,59.2c-23,0-41.7,18.7-41.7,41.7s18.7,41.7,41.7,41.7S144,124,144,100.9S125.3,59.2,102.3,59.2z"
			/>
	</g>
	<path fill="#FF7661" d="M196.2,163h-6.8c-0.7,0-1.3-0.6-1.3-1.3v-59.5h-5.4c-0.7,0-1.3-0.6-1.3-1.3V43.5c0-3.2,1-5.3,2.8-6.2
		c4.3-2,11.5,4,12.8,5.2c0.3,0.2,0.4,0.6,0.4,1v118.2C197.5,162.4,196.9,163,196.2,163z M190.7,160.4h4.1V44.1
		c-3-2.5-7.6-5.3-9.6-4.4c-1.1,0.5-1.3,2.3-1.3,3.8v56.1h5.4c0.7,0,1.3,0.6,1.3,1.3V160.4z"/>
	<g>
		<path fill="#FF7661" d="M15.5,88.7c-7.2,0-13-5.9-13-13.2c0-6,5-29.9,13-29.9s13,23.9,13,29.9C28.5,82.8,22.6,88.7,15.5,88.7z
			 M15.5,48.2c-4.7,0-10.4,19.6-10.4,27.3c0,5.8,4.6,10.6,10.4,10.6s10.4-4.8,10.4-10.6C25.8,67.8,20.2,48.2,15.5,48.2z"/>
		<path fill="#FF7661" d="M15.3,163c-2.6,0-4.7-2.1-4.7-4.7c0-1,0.4-19,1-36.2c1.3-36,2-36,3.7-36s2.4,0,3.7,36
			c0.6,17.2,1,35.2,1,36.2C20,160.9,17.9,163,15.3,163z M15.3,98.2c-1.2,19-2.1,58-2.1,60.1c0,1.1,0.9,2.1,2.1,2.1s2.1-0.9,2.1-2.1
			C17.4,156.2,16.5,117.2,15.3,98.2z"/>
	</g>
</g>
</svg>
