<?xml version="1.0" encoding="utf-8"?>
<!-- Generator: Adobe Illustrator 21.1.0, SVG Export Plug-In . SVG Version: 6.00 Build 0)  -->
<svg version="1.1" id="Layer_1" xmlns="http://www.w3.org/2000/svg" xmlns:xlink="http://www.w3.org/1999/xlink" x="0px" y="0px"
	 viewBox="0 0 200 200" enable-background="new 0 0 200 200" xml:space="preserve">
<g>
	<g>
		<g>
			<path fill="#FF7661" d="M139.7,186.8H13.3c-6.5,0-11.8-5.3-11.8-11.8V26.9c0-7.6,6.2-13.7,13.7-13.7h124.5c0.9,0,1.6,0.7,1.6,1.6
				V52c0,0.4-0.2,0.8-0.5,1.1l-38,39.6l-1.4,22.9l21.7-3.4l15.4-16.1c0.5-0.5,1.2-0.6,1.8-0.4c0.6,0.2,1,0.8,1,1.5v87.9
				C141.3,186.1,140.6,186.8,139.7,186.8z M15.2,16.4c-5.8,0-10.5,4.7-10.5,10.5V175c0,4.7,3.8,8.6,8.5,8.6h124.8v-82.2l-13,13.6
				c-0.2,0.3-0.6,0.4-0.9,0.5l-24.2,3.8c-0.5,0.1-1-0.1-1.3-0.4c-0.4-0.3-0.6-0.8-0.5-1.3L99.6,92c0-0.4,0.2-0.7,0.4-1l38-39.6V16.4
				H15.2z"/>
		</g>
		<g>
			<path fill="#FF7661" d="M29.3,186.3c-0.9,0-1.6-0.7-1.6-1.6V15.1c0-0.9,0.7-1.6,1.6-1.6s1.6,0.7,1.6,1.6v169.5
				C30.9,185.6,30.2,186.3,29.3,186.3z"/>
		</g>
		<g>
			<path fill="#FF7661" d="M16.2,50c-4,0-7.2-3.2-7.2-7.2c0-4,3.2-7.2,7.2-7.2s7.2,3.2,7.2,7.2C23.4,46.8,20.1,50,16.2,50z
				 M16.2,38.9c-2.2,0-3.9,1.8-3.9,3.9c0,2.2,1.8,4,3.9,4s3.9-1.8,3.9-4C20.1,40.7,18.4,38.9,16.2,38.9z"/>
		</g>
		<g>
			<path fill="#FF7661" d="M16.2,78.6c-4,0-7.2-3.2-7.2-7.2c0-4,3.2-7.2,7.2-7.2s7.2,3.2,7.2,7.2C23.4,75.4,20.1,78.6,16.2,78.6z
				 M16.2,67.5c-2.2,0-3.9,1.8-3.9,3.9c0,2.2,1.8,3.9,3.9,3.9s3.9-1.8,3.9-3.9C20.1,69.2,18.4,67.5,16.2,67.5z"/>
		</g>
		<g>
			<path fill="#FF7661" d="M16.2,107.2c-4,0-7.2-3.2-7.2-7.2c0-4,3.2-7.2,7.2-7.2s7.2,3.2,7.2,7.2C23.4,104,20.1,107.2,16.2,107.2z
				 M16.2,96.1c-2.2,0-3.9,1.8-3.9,3.9c0,2.2,1.8,3.9,3.9,3.9s3.9-1.8,3.9-3.9C20.1,97.8,18.4,96.1,16.2,96.1z"/>
		</g>
		<g>
			<path fill="#FF7661" d="M16.2,135.7c-4,0-7.2-3.2-7.2-7.2c0-4,3.2-7.2,7.2-7.2s7.2,3.2,7.2,7.2C23.4,132.5,20.1,135.7,16.2,135.7
				z M16.2,124.6c-2.2,0-3.9,1.8-3.9,3.9c0,2.2,1.8,3.9,3.9,3.9c2.2,0,3.9-1.7,3.9-3.9C20.1,126.4,18.4,124.6,16.2,124.6z"/>
		</g>
		<g>
			<path fill="#FF7661" d="M16.2,164.3c-4,0-7.2-3.2-7.2-7.2c0-4,3.2-7.2,7.2-7.2s7.2,3.2,7.2,7.2C23.4,161.1,20.1,164.3,16.2,164.3
				z M16.2,153.2c-2.2,0-3.9,1.8-3.9,3.9c0,2.2,1.8,3.9,3.9,3.9s3.9-1.8,3.9-3.9C20.1,155,18.4,153.2,16.2,153.2z"/>
		</g>
		<g>
			<path fill="#FF7661" d="M90.8,48.8H52c-0.9,0-1.6-0.7-1.6-1.6c0-0.9,0.7-1.6,1.6-1.6h38.7c0.9,0,1.6,0.7,1.6,1.6
				C92.4,48.1,91.7,48.8,90.8,48.8z"/>
		</g>
		<g>
			<path fill="#FF7661" d="M90.8,84H52c-0.9,0-1.6-0.7-1.6-1.6c0-0.9,0.7-1.6,1.6-1.6h38.7c0.9,0,1.6,0.7,1.6,1.6
				C92.4,83.3,91.7,84,90.8,84z"/>
		</g>
		<g>
			<path fill="#FF7661" d="M99.6,119.2H52c-0.9,0-1.6-0.7-1.6-1.6c0-0.9,0.7-1.6,1.6-1.6h47.6c0.9,0,1.6,0.7,1.6,1.6
				C101.2,118.5,100.5,119.2,99.6,119.2z"/>
		</g>
		<g>
			<path fill="#FF7661" d="M121.6,154.4H52c-0.9,0-1.6-0.7-1.6-1.6c0-0.9,0.7-1.6,1.6-1.6h69.6c0.9,0,1.6,0.7,1.6,1.6
				C123.3,153.7,122.5,154.4,121.6,154.4z"/>
		</g>
		<g>
			<path fill="#FF7661" d="M99.7,119.2c-0.4,0-0.8-0.1-1.1-0.4c-0.4-0.3-0.6-0.8-0.5-1.3L99.6,92c0-0.4,0.2-0.7,0.4-1l70.7-73.6
				c1.9-2,4.5-3.1,7.3-3.1c2.6,0,5.1,1,7,2.8l10.5,10.1c4,3.8,4.1,10.2,0.3,14.2L125,114.9c-0.2,0.3-0.6,0.4-0.9,0.5l-24.2,3.8
				C99.9,119.2,99.8,119.2,99.7,119.2z M102.8,92.8l-1.4,22.9l21.7-3.4l70.3-73.2c2.6-2.7,2.5-7-0.2-9.6l-10.5-10.1
				c-2.6-2.5-7.1-2.4-9.6,0.2L102.8,92.8z"/>
		</g>
		<g>
			<path fill="#FF7661" d="M188.5,48.1c-0.4,0-0.8-0.2-1.1-0.5l-22.7-21.7c-0.6-0.6-0.7-1.6-0.1-2.3c0.6-0.6,1.6-0.7,2.3-0.1
				l22.7,21.7c0.6,0.6,0.7,1.6,0,2.3C189.4,47.9,188.9,48.1,188.5,48.1z"/>
		</g>
		<g>
			<path fill="#FF7661" d="M123.9,115.4c-0.4,0-0.8-0.2-1.1-0.5l-22.6-21.7c-0.6-0.6-0.7-1.6,0-2.3c0.6-0.6,1.6-0.7,2.3,0l22.6,21.7
				c0.6,0.6,0.7,1.6,0,2.3C124.7,115.3,124.3,115.4,123.9,115.4z"/>
		</g>
		<g>
			<path fill="#FF7661" d="M112.6,104.5c-0.4,0-0.8-0.2-1.1-0.5c-0.6-0.6-0.7-1.6,0-2.3L176,34.5c0.6-0.6,1.6-0.7,2.3,0
				c0.6,0.6,0.7,1.6,0,2.3L113.7,104C113.4,104.4,113,104.5,112.6,104.5z"/>
		</g>
	</g>
</g>
</svg>
