<?xml version="1.0" encoding="utf-8"?>
<!-- Generator: Adobe Illustrator 21.1.0, SVG Export Plug-In . SVG Version: 6.00 Build 0)  -->
<svg version="1.1" id="Layer_1" xmlns="http://www.w3.org/2000/svg" xmlns:xlink="http://www.w3.org/1999/xlink" x="0px" y="0px"
	 viewBox="0 0 200 200" enable-background="new 0 0 200 200" xml:space="preserve">
<g>
	<g>
		<g>
			<path fill="#FF7661" d="M43.7,194c-4.7,0-9.2-1.8-12.5-5.2L12.3,170c-3.3-3.3-5.2-7.8-5.2-12.5c0-4.7,1.8-9.2,5.2-12.5
				L144.6,12.7c0.3-0.3,0.8-0.6,1.3-0.6l44.5-6c0.7-0.1,1.4,0.1,1.8,0.6c0.5,0.5,0.7,1.1,0.7,1.8l-3.8,46.7c0,0.5-0.3,1-0.6,1.4
				L56.2,188.8C52.8,192.2,48.4,194,43.7,194z M147.2,16.4L15.5,148.2c-2.5,2.5-3.9,5.8-3.9,9.3c0,3.5,1.4,6.8,3.9,9.3l18.8,18.8
				c5,5,13.7,5,18.7,0l9.1-9L184.7,54l3.5-43.1L147.2,16.4z"/>
		</g>
		<g>
			<path fill="#FF7661" d="M65.9,178.2c-0.6,0-1.1-0.2-1.6-0.7l-40.7-40.7c-0.9-0.9-0.9-2.3,0-3.2c0.9-0.9,2.3-0.9,3.2,0l40.7,40.7
				c0.9,0.9,0.9,2.3,0,3.2C67.1,178,66.5,178.2,65.9,178.2z"/>
		</g>
		<g>
			<path fill="#FF7661" d="M186.9,57.2c-0.6,0-1.1-0.2-1.6-0.7l-40.7-40.7c-0.9-0.9-0.9-2.3,0-3.2s2.3-0.9,3.2,0l40.7,40.7
				c0.9,0.9,0.9,2.3,0,3.2C188,57,187.4,57.2,186.9,57.2z"/>
		</g>
		<g>
			<path fill="#FF7661" d="M53.4,165.7c-0.6,0-1.1-0.2-1.6-0.7c-0.9-0.9-0.9-2.3,0-3.2l121-121c0.9-0.9,2.3-0.9,3.2,0
				c0.9,0.9,0.9,2.3,0,3.2l-121,121C54.6,165.5,54,165.7,53.4,165.7z"/>
		</g>
		<g>
			<path fill="#FF7661" d="M39.6,151.9c-0.6,0-1.1-0.2-1.6-0.7c-0.9-0.9-0.9-2.3,0-3.2l121-121c0.9-0.9,2.3-0.9,3.2,0
				c0.9,0.9,0.9,2.3,0,3.2l-121,121C40.8,151.7,40.2,151.9,39.6,151.9z"/>
		</g>
	</g>
	<polygon fill="#FF7661" points="175.6,11.5 189.2,23.7 189.4,8.1 	"/>
</g>
</svg>
