<?xml version="1.0" encoding="utf-8"?>
<!-- Generator: Adobe Illustrator 21.1.0, SVG Export Plug-In . SVG Version: 6.00 Build 0)  -->
<svg version="1.1" id="Layer_1" xmlns="http://www.w3.org/2000/svg" xmlns:xlink="http://www.w3.org/1999/xlink" x="0px" y="0px"
	 viewBox="0 0 200 200" enable-background="new 0 0 200 200" xml:space="preserve">
<g>
	<g>
		<path fill="#FF7661" d="M121.5,198.2H78.5c-0.5,0-0.9-0.4-0.9-0.9V2.6c0-0.5,0.4-0.9,0.9-0.9h43.1c0.5,0,0.9,0.4,0.9,0.9v194.8
			C122.4,197.9,122,198.2,121.5,198.2z M79.3,196.5h41.4V3.5H79.3V196.5z"/>
		<g>
			<path fill="#FF7661" d="M121.5,10.4h-17.2c-0.5,0-0.9-0.4-0.9-0.9c0-0.5,0.4-0.9,0.9-0.9h17.2c0.5,0,0.9,0.4,0.9,0.9
				C122.4,10,122,10.4,121.5,10.4z"/>
			<path fill="#FF7661" d="M121.5,40.5h-17.2c-0.5,0-0.9-0.4-0.9-0.9c0-0.5,0.4-0.9,0.9-0.9h17.2c0.5,0,0.9,0.4,0.9,0.9
				C122.4,40.1,122,40.5,121.5,40.5z"/>
			<path fill="#FF7661" d="M121.5,16.4h-8.6c-0.5,0-0.9-0.4-0.9-0.9c0-0.5,0.4-0.9,0.9-0.9h8.6c0.5,0,0.9,0.4,0.9,0.9
				C122.4,16,122,16.4,121.5,16.4z"/>
			<path fill="#FF7661" d="M121.5,22.4h-8.6c-0.5,0-0.9-0.4-0.9-0.9s0.4-0.9,0.9-0.9h8.6c0.5,0,0.9,0.4,0.9,0.9S122,22.4,121.5,22.4
				z"/>
			<path fill="#FF7661" d="M121.5,28.5h-8.6c-0.5,0-0.9-0.4-0.9-0.9c0-0.5,0.4-0.9,0.9-0.9h8.6c0.5,0,0.9,0.4,0.9,0.9
				C122.4,28.1,122,28.5,121.5,28.5z"/>
			<path fill="#FF7661" d="M121.5,34.5h-8.6c-0.5,0-0.9-0.4-0.9-0.9s0.4-0.9,0.9-0.9h8.6c0.5,0,0.9,0.4,0.9,0.9S122,34.5,121.5,34.5
				z"/>
			<path fill="#FF7661" d="M121.5,70.7h-17.2c-0.5,0-0.9-0.4-0.9-0.9c0-0.5,0.4-0.9,0.9-0.9h17.2c0.5,0,0.9,0.4,0.9,0.9
				C122.4,70.3,122,70.7,121.5,70.7z"/>
			<path fill="#FF7661" d="M121.5,46.6h-8.6c-0.5,0-0.9-0.4-0.9-0.9c0-0.5,0.4-0.9,0.9-0.9h8.6c0.5,0,0.9,0.4,0.9,0.9
				C122.4,46.2,122,46.6,121.5,46.6z"/>
			<path fill="#FF7661" d="M121.5,52.6h-8.6c-0.5,0-0.9-0.4-0.9-0.9s0.4-0.9,0.9-0.9h8.6c0.5,0,0.9,0.4,0.9,0.9S122,52.6,121.5,52.6
				z"/>
			<path fill="#FF7661" d="M121.5,58.6h-8.6c-0.5,0-0.9-0.4-0.9-0.9s0.4-0.9,0.9-0.9h8.6c0.5,0,0.9,0.4,0.9,0.9S122,58.6,121.5,58.6
				z"/>
			<path fill="#FF7661" d="M121.5,64.7h-8.6c-0.5,0-0.9-0.4-0.9-0.9s0.4-0.9,0.9-0.9h8.6c0.5,0,0.9,0.4,0.9,0.9S122,64.7,121.5,64.7
				z"/>
			<path fill="#FF7661" d="M121.5,100.9h-17.2c-0.5,0-0.9-0.4-0.9-0.9s0.4-0.9,0.9-0.9h17.2c0.5,0,0.9,0.4,0.9,0.9
				S122,100.9,121.5,100.9z"/>
			<path fill="#FF7661" d="M121.5,76.7h-8.6c-0.5,0-0.9-0.4-0.9-0.9c0-0.5,0.4-0.9,0.9-0.9h8.6c0.5,0,0.9,0.4,0.9,0.9
				C122.4,76.3,122,76.7,121.5,76.7z"/>
			<path fill="#FF7661" d="M121.5,82.8h-8.6c-0.5,0-0.9-0.4-0.9-0.9c0-0.5,0.4-0.9,0.9-0.9h8.6c0.5,0,0.9,0.4,0.9,0.9
				C122.4,82.4,122,82.8,121.5,82.8z"/>
			<path fill="#FF7661" d="M121.5,88.8h-8.6c-0.5,0-0.9-0.4-0.9-0.9c0-0.5,0.4-0.9,0.9-0.9h8.6c0.5,0,0.9,0.4,0.9,0.9
				C122.4,88.4,122,88.8,121.5,88.8z"/>
			<path fill="#FF7661" d="M121.5,94.8h-8.6c-0.5,0-0.9-0.4-0.9-0.9c0-0.5,0.4-0.9,0.9-0.9h8.6c0.5,0,0.9,0.4,0.9,0.9
				C122.4,94.4,122,94.8,121.5,94.8z"/>
			<path fill="#FF7661" d="M121.5,131h-17.2c-0.5,0-0.9-0.4-0.9-0.9s0.4-0.9,0.9-0.9h17.2c0.5,0,0.9,0.4,0.9,0.9S122,131,121.5,131z
				"/>
			<path fill="#FF7661" d="M121.5,106.9h-8.6c-0.5,0-0.9-0.4-0.9-0.9c0-0.5,0.4-0.9,0.9-0.9h8.6c0.5,0,0.9,0.4,0.9,0.9
				C122.4,106.5,122,106.9,121.5,106.9z"/>
			<path fill="#FF7661" d="M121.5,112.9h-8.6c-0.5,0-0.9-0.4-0.9-0.9c0-0.5,0.4-0.9,0.9-0.9h8.6c0.5,0,0.9,0.4,0.9,0.9
				C122.4,112.5,122,112.9,121.5,112.9z"/>
			<path fill="#FF7661" d="M121.5,119h-8.6c-0.5,0-0.9-0.4-0.9-0.9c0-0.5,0.4-0.9,0.9-0.9h8.6c0.5,0,0.9,0.4,0.9,0.9
				C122.4,118.6,122,119,121.5,119z"/>
			<path fill="#FF7661" d="M121.5,125h-8.6c-0.5,0-0.9-0.4-0.9-0.9c0-0.5,0.4-0.9,0.9-0.9h8.6c0.5,0,0.9,0.4,0.9,0.9
				C122.4,124.6,122,125,121.5,125z"/>
			<path fill="#FF7661" d="M121.5,161.2h-17.2c-0.5,0-0.9-0.4-0.9-0.9s0.4-0.9,0.9-0.9h17.2c0.5,0,0.9,0.4,0.9,0.9
				S122,161.2,121.5,161.2z"/>
			<path fill="#FF7661" d="M121.5,137.1h-8.6c-0.5,0-0.9-0.4-0.9-0.9s0.4-0.9,0.9-0.9h8.6c0.5,0,0.9,0.4,0.9,0.9
				S122,137.1,121.5,137.1z"/>
			<path fill="#FF7661" d="M121.5,143.1h-8.6c-0.5,0-0.9-0.4-0.9-0.9c0-0.5,0.4-0.9,0.9-0.9h8.6c0.5,0,0.9,0.4,0.9,0.9
				C122.4,142.7,122,143.1,121.5,143.1z"/>
			<path fill="#FF7661" d="M121.5,149.1h-8.6c-0.5,0-0.9-0.4-0.9-0.9c0-0.5,0.4-0.9,0.9-0.9h8.6c0.5,0,0.9,0.4,0.9,0.9
				C122.4,148.7,122,149.1,121.5,149.1z"/>
			<path fill="#FF7661" d="M121.5,155.2h-8.6c-0.5,0-0.9-0.4-0.9-0.9s0.4-0.9,0.9-0.9h8.6c0.5,0,0.9,0.4,0.9,0.9
				S122,155.2,121.5,155.2z"/>
			<path fill="#FF7661" d="M121.5,191.4h-17.2c-0.5,0-0.9-0.4-0.9-0.9s0.4-0.9,0.9-0.9h17.2c0.5,0,0.9,0.4,0.9,0.9
				S122,191.4,121.5,191.4z"/>
			<path fill="#FF7661" d="M121.5,167.2h-8.6c-0.5,0-0.9-0.4-0.9-0.9c0-0.5,0.4-0.9,0.9-0.9h8.6c0.5,0,0.9,0.4,0.9,0.9
				C122.4,166.8,122,167.2,121.5,167.2z"/>
			<path fill="#FF7661" d="M121.5,173.3h-8.6c-0.5,0-0.9-0.4-0.9-0.9c0-0.5,0.4-0.9,0.9-0.9h8.6c0.5,0,0.9,0.4,0.9,0.9
				C122.4,172.9,122,173.3,121.5,173.3z"/>
			<path fill="#FF7661" d="M121.5,179.3h-8.6c-0.5,0-0.9-0.4-0.9-0.9s0.4-0.9,0.9-0.9h8.6c0.5,0,0.9,0.4,0.9,0.9
				S122,179.3,121.5,179.3z"/>
			<path fill="#FF7661" d="M121.5,185.3h-8.6c-0.5,0-0.9-0.4-0.9-0.9s0.4-0.9,0.9-0.9h8.6c0.5,0,0.9,0.4,0.9,0.9
				S122,185.3,121.5,185.3z"/>
		</g>
	</g>
	<path fill="#FF7661" d="M84.5,198.2c-0.5,0-0.9-0.4-0.9-0.9V2.6c0-0.5,0.4-0.9,0.9-0.9c0.5,0,0.9,0.4,0.9,0.9v194.8
		C85.3,197.9,85,198.2,84.5,198.2z"/>
</g>
</svg>
