<?xml version="1.0" encoding="utf-8"?>
<!-- Generator: Adobe Illustrator 21.1.0, SVG Export Plug-In . SVG Version: 6.00 Build 0)  -->
<svg version="1.1" id="Layer_1" xmlns="http://www.w3.org/2000/svg" xmlns:xlink="http://www.w3.org/1999/xlink" x="0px" y="0px"
	 viewBox="0 0 200 200" enable-background="new 0 0 200 200" xml:space="preserve">
<g>
	<g>
		<g>
			<path fill="#FF7661" d="M175,175H7.8c-3.4,0-6.2-2.8-6.2-6.2v-127c0-3.4,2.8-6.2,6.2-6.2h11.8c0.9,0,1.6,0.7,1.6,1.6v8.1
				c0,0.5,0.4,0.9,0.9,0.9h7.9c0.5,0,0.9-0.4,0.9-0.9v-8.1c0-0.9,0.7-1.6,1.6-1.6h23.9c0.9,0,1.6,0.7,1.6,1.6v8.1
				c0,0.5,0.4,0.9,0.9,0.9H67c0.5,0,0.9-0.4,0.9-0.9v-8.1c0-0.9,0.7-1.6,1.6-1.6h23.9c0.9,0,1.6,0.7,1.6,1.6v8.1
				c0,0.5,0.4,0.9,0.9,0.9h8c0.5,0,0.9-0.4,0.9-0.9v-8.1c0-0.9,0.7-1.6,1.6-1.6h23.9c0.9,0,1.6,0.7,1.6,1.6v8.1
				c0,0.5,0.4,0.9,0.9,0.9h7.9c0.5,0,0.9-0.4,0.9-0.9v-8.1c0-0.9,0.7-1.6,1.6-1.6h23.9c0.9,0,1.6,0.7,1.6,1.6v8.1
				c0,0.5,0.4,0.9,0.9,0.9h7.9c0.5,0,0.9-0.4,0.9-0.9v-8.1c0-0.9,0.7-1.6,1.6-1.6h11.8c3.4,0,6.1,2.8,6.1,6.2v109
				c0,0.9-0.7,1.6-1.6,1.6h-20.1v20.9C176.7,174.3,175.9,175,175,175z M7.8,38.9c-1.6,0-2.9,1.3-2.9,2.9v127c0,1.6,1.3,2.9,2.9,2.9
				h165.7v-20.9c0-0.9,0.7-1.6,1.6-1.6h20.1V41.8c0-1.6-1.3-2.9-2.9-2.9H182v6.5c0,2.3-1.9,4.2-4.2,4.2h-7.9c-2.3,0-4.2-1.9-4.2-4.2
				v-6.5h-20.7v6.5c0,2.3-1.9,4.2-4.2,4.2H133c-2.3,0-4.2-1.9-4.2-4.2v-6.5h-20.7v6.5c0,2.3-1.9,4.2-4.2,4.2h-8
				c-2.3,0-4.1-1.9-4.1-4.2v-6.5H71.2v6.5c0,2.3-1.9,4.2-4.2,4.2h-7.9c-2.3,0-4.2-1.9-4.2-4.2v-6.5H34.2v6.5c0,2.3-1.9,4.2-4.1,4.2
				h-7.9c-2.3,0-4.2-1.9-4.2-4.2v-6.5H7.8z"/>
		</g>
		<g>
			<path fill="#FF7661" d="M196.8,68.4H3.2c-0.9,0-1.6-0.7-1.6-1.6s0.7-1.6,1.6-1.6h193.5c0.9,0,1.6,0.7,1.6,1.6
				S197.7,68.4,196.8,68.4z"/>
		</g>
		<g>
			<path fill="#FF7661" d="M30.1,49.6h-7.9c-2.3,0-4.2-1.9-4.2-4.2V29.2c0-2.3,1.9-4.2,4.2-4.2h7.9c2.3,0,4.1,1.9,4.1,4.2v16.3
				C34.2,47.7,32.4,49.6,30.1,49.6z M22.1,28.2c-0.5,0-0.9,0.4-0.9,0.9v16.3c0,0.5,0.4,0.9,0.9,0.9h7.9c0.5,0,0.9-0.4,0.9-0.9V29.2
				c0-0.5-0.4-0.9-0.9-0.9H22.1z"/>
		</g>
		<g>
			<path fill="#FF7661" d="M67,49.6h-7.9c-2.3,0-4.2-1.9-4.2-4.2V29.2c0-2.3,1.9-4.2,4.2-4.2H67c2.3,0,4.2,1.9,4.2,4.2v16.3
				C71.2,47.7,69.3,49.6,67,49.6z M59.1,28.2c-0.5,0-0.9,0.4-0.9,0.9v16.3c0,0.5,0.4,0.9,0.9,0.9H67c0.5,0,0.9-0.4,0.9-0.9V29.2
				c0-0.5-0.4-0.9-0.9-0.9H59.1z"/>
		</g>
		<g>
			<path fill="#FF7661" d="M104,49.6h-8c-2.3,0-4.1-1.9-4.1-4.2V29.2c0-2.3,1.9-4.2,4.1-4.2h8c2.3,0,4.2,1.9,4.2,4.2v16.3
				C108.1,47.7,106.3,49.6,104,49.6z M96,28.2c-0.5,0-0.9,0.4-0.9,0.9v16.3c0,0.5,0.4,0.9,0.9,0.9h8c0.5,0,0.9-0.4,0.9-0.9V29.2
				c0-0.5-0.4-0.9-0.9-0.9H96z"/>
		</g>
		<g>
			<path fill="#FF7661" d="M140.9,49.6H133c-2.3,0-4.2-1.9-4.2-4.2V29.2c0-2.3,1.9-4.2,4.2-4.2h7.9c2.3,0,4.2,1.9,4.2,4.2v16.3
				C145.1,47.7,143.2,49.6,140.9,49.6z M133,28.2c-0.5,0-0.9,0.4-0.9,0.9v16.3c0,0.5,0.4,0.9,0.9,0.9h7.9c0.5,0,0.9-0.4,0.9-0.9
				V29.2c0-0.5-0.4-0.9-0.9-0.9H133z"/>
		</g>
		<g>
			<path fill="#FF7661" d="M177.9,49.6h-7.9c-2.3,0-4.2-1.9-4.2-4.2V29.2c0-2.3,1.9-4.2,4.2-4.2h7.9c2.3,0,4.2,1.9,4.2,4.2v16.3
				C182,47.7,180.2,49.6,177.9,49.6z M169.9,28.2c-0.5,0-0.9,0.4-0.9,0.9v16.3c0,0.5,0.4,0.9,0.9,0.9h7.9c0.5,0,0.9-0.4,0.9-0.9
				V29.2c0-0.5-0.4-0.9-0.9-0.9H169.9z"/>
		</g>
		<g>
			<path fill="#FF7661" d="M175.5,174.6c-0.4,0-0.8-0.2-1.1-0.5c-0.6-0.6-0.7-1.6,0-2.3l21.3-22.1c0.6-0.6,1.6-0.7,2.3,0
				c0.6,0.6,0.7,1.6,0,2.3l-21.3,22.1C176.3,174.4,175.9,174.6,175.5,174.6z"/>
		</g>
		<path fill="#FF7661" d="M29.4,94h-14c-0.7,0-1.3-0.6-1.3-1.3v-14c0-0.7,0.6-1.3,1.3-1.3h14c0.7,0,1.3,0.6,1.3,1.3v14
			C30.7,93.4,30.1,94,29.4,94z M16.7,91.4h11.4V80H16.7V91.4z"/>
		<path fill="#FF7661" d="M52.4,94h-14c-0.7,0-1.3-0.6-1.3-1.3v-14c0-0.7,0.6-1.3,1.3-1.3h14c0.7,0,1.3,0.6,1.3,1.3v14
			C53.7,93.4,53.1,94,52.4,94z M39.7,91.4h11.4V80H39.7V91.4z"/>
		<path fill="#FF7661" d="M75.4,94h-14c-0.7,0-1.3-0.6-1.3-1.3v-14c0-0.7,0.6-1.3,1.3-1.3h14c0.7,0,1.3,0.6,1.3,1.3v14
			C76.7,93.4,76.1,94,75.4,94z M62.8,91.4h11.4V80H62.8V91.4z"/>
		<path fill="#FF7661" d="M98.4,94h-14c-0.7,0-1.3-0.6-1.3-1.3v-14c0-0.7,0.6-1.3,1.3-1.3h14c0.7,0,1.3,0.6,1.3,1.3v14
			C99.7,93.4,99.1,94,98.4,94z M85.8,91.4h11.4V80H85.8V91.4z"/>
		<path fill="#FF7661" d="M121.4,94h-14c-0.7,0-1.3-0.6-1.3-1.3v-14c0-0.7,0.6-1.3,1.3-1.3h14c0.7,0,1.3,0.6,1.3,1.3v14
			C122.7,93.4,122.2,94,121.4,94z M108.8,91.4h11.4V80h-11.4V91.4z"/>
		<path fill="#FF7661" d="M29.4,117.3h-14c-0.7,0-1.3-0.6-1.3-1.3v-14c0-0.7,0.6-1.3,1.3-1.3h14c0.7,0,1.3,0.6,1.3,1.3v14
			C30.7,116.7,30.1,117.3,29.4,117.3z M16.7,114.7h11.4v-11.4H16.7V114.7z"/>
		<path fill="#FF7661" d="M52.4,117.3h-14c-0.7,0-1.3-0.6-1.3-1.3v-14c0-0.7,0.6-1.3,1.3-1.3h14c0.7,0,1.3,0.6,1.3,1.3v14
			C53.7,116.7,53.1,117.3,52.4,117.3z M39.7,114.7h11.4v-11.4H39.7V114.7z"/>
		<path fill="#FF7661" d="M75.4,117.3h-14c-0.7,0-1.3-0.6-1.3-1.3v-14c0-0.7,0.6-1.3,1.3-1.3h14c0.7,0,1.3,0.6,1.3,1.3v14
			C76.7,116.7,76.1,117.3,75.4,117.3z M62.8,114.7h11.4v-11.4H62.8V114.7z"/>
		<path fill="#FF7661" d="M98.4,117.3h-14c-0.7,0-1.3-0.6-1.3-1.3v-14c0-0.7,0.6-1.3,1.3-1.3h14c0.7,0,1.3,0.6,1.3,1.3v14
			C99.7,116.7,99.1,117.3,98.4,117.3z M85.8,114.7h11.4v-11.4H85.8V114.7z"/>
		<path fill="#FF7661" d="M121.4,117.3h-14c-0.7,0-1.3-0.6-1.3-1.3v-14c0-0.7,0.6-1.3,1.3-1.3h14c0.7,0,1.3,0.6,1.3,1.3v14
			C122.7,116.7,122.2,117.3,121.4,117.3z M108.8,114.7h11.4v-11.4h-11.4V114.7z"/>
		<path fill="#FF7661" d="M29.4,140.6h-14c-0.7,0-1.3-0.6-1.3-1.3v-14c0-0.7,0.6-1.3,1.3-1.3h14c0.7,0,1.3,0.6,1.3,1.3v14
			C30.7,140,30.1,140.6,29.4,140.6z M16.7,138h11.4v-11.4H16.7V138z"/>
		<path fill="#FF7661" d="M52.4,140.6h-14c-0.7,0-1.3-0.6-1.3-1.3v-14c0-0.7,0.6-1.3,1.3-1.3h14c0.7,0,1.3,0.6,1.3,1.3v14
			C53.7,140,53.1,140.6,52.4,140.6z M39.7,138h11.4v-11.4H39.7V138z"/>
		<path fill="#FF7661" d="M75.4,140.6h-14c-0.7,0-1.3-0.6-1.3-1.3v-14c0-0.7,0.6-1.3,1.3-1.3h14c0.7,0,1.3,0.6,1.3,1.3v14
			C76.7,140,76.1,140.6,75.4,140.6z M62.8,138h11.4v-11.4H62.8V138z"/>
		<path fill="#FF7661" d="M98.4,140.6h-14c-0.7,0-1.3-0.6-1.3-1.3v-14c0-0.7,0.6-1.3,1.3-1.3h14c0.7,0,1.3,0.6,1.3,1.3v14
			C99.7,140,99.1,140.6,98.4,140.6z M85.8,138h11.4v-11.4H85.8V138z"/>
		<path fill="#FF7661" d="M121.4,140.6h-14c-0.7,0-1.3-0.6-1.3-1.3v-14c0-0.7,0.6-1.3,1.3-1.3h14c0.7,0,1.3,0.6,1.3,1.3v14
			C122.7,140,122.2,140.6,121.4,140.6z M108.8,138h11.4v-11.4h-11.4V138z"/>
		<path fill="#FF7661" d="M186.4,140.6h-46.2c-0.7,0-1.3-0.6-1.3-1.3V93.1c0-0.7,0.6-1.3,1.3-1.3h46.2c0.7,0,1.3,0.6,1.3,1.3v46.2
			C187.7,140,187.1,140.6,186.4,140.6z M141.5,138h43.5V94.5h-43.5V138z"/>
		<path fill="#FF7661" d="M29.4,163.9h-14c-0.7,0-1.3-0.6-1.3-1.3v-14c0-0.7,0.6-1.3,1.3-1.3h14c0.7,0,1.3,0.6,1.3,1.3v14
			C30.7,163.3,30.1,163.9,29.4,163.9z M16.7,161.3h11.4v-11.4H16.7V161.3z"/>
		<path fill="#FF7661" d="M52.4,163.9h-14c-0.7,0-1.3-0.6-1.3-1.3v-14c0-0.7,0.6-1.3,1.3-1.3h14c0.7,0,1.3,0.6,1.3,1.3v14
			C53.7,163.3,53.1,163.9,52.4,163.9z M39.7,161.3h11.4v-11.4H39.7V161.3z"/>
		<path fill="#FF7661" d="M75.4,163.9h-14c-0.7,0-1.3-0.6-1.3-1.3v-14c0-0.7,0.6-1.3,1.3-1.3h14c0.7,0,1.3,0.6,1.3,1.3v14
			C76.7,163.3,76.1,163.9,75.4,163.9z M62.8,161.3h11.4v-11.4H62.8V161.3z"/>
		<path fill="#FF7661" d="M98.4,163.9h-14c-0.7,0-1.3-0.6-1.3-1.3v-14c0-0.7,0.6-1.3,1.3-1.3h14c0.7,0,1.3,0.6,1.3,1.3v14
			C99.7,163.3,99.1,163.9,98.4,163.9z M85.8,161.3h11.4v-11.4H85.8V161.3z"/>
		<path fill="#FF7661" d="M121.4,163.9h-14c-0.7,0-1.3-0.6-1.3-1.3v-14c0-0.7,0.6-1.3,1.3-1.3h14c0.7,0,1.3,0.6,1.3,1.3v14
			C122.7,163.3,122.2,163.9,121.4,163.9z M108.8,161.3h11.4v-11.4h-11.4V161.3z"/>
		<path fill="#FF7661" d="M163.3,130.6c-1.3,0-2.6-0.2-3.9-0.5c-3.7-1-6.8-3.4-8.7-6.8c-1.9-3.4-2.4-7.2-1.4-10.9
			c2.1-7.7,10.1-12.2,17.7-10.1c0.7,0.2,1.1,0.9,0.9,1.6c-0.2,0.7-0.9,1.1-1.6,0.9c-6.3-1.7-12.8,2-14.5,8.2c-0.8,3-0.4,6.2,1.1,9
			c1.6,2.7,4.1,4.7,7.1,5.6c3,0.8,6.2,0.4,9-1.1c2.7-1.6,4.7-4.1,5.6-7.1c0.2-0.7,0.9-1.1,1.6-0.9c0.7,0.2,1.1,0.9,0.9,1.6
			c-1,3.7-3.4,6.8-6.8,8.7C168.2,130,165.8,130.6,163.3,130.6z"/>
		<path fill="#FF7661" d="M164.2,120c-0.3,0-0.7-0.1-0.9-0.4l-5.9-5.9c-0.5-0.5-0.5-1.3,0-1.9c0.5-0.5,1.3-0.5,1.9,0l5,5l16.1-16.1
			c0.5-0.5,1.3-0.5,1.9,0c0.5,0.5,0.5,1.3,0,1.9l-17,17C164.8,119.9,164.5,120,164.2,120z"/>
	</g>
</g>
</svg>
