<?xml version="1.0" encoding="utf-8"?>
<!-- Generator: Adobe Illustrator 21.1.0, SVG Export Plug-In . SVG Version: 6.00 Build 0)  -->
<svg version="1.1" id="Layer_1" xmlns="http://www.w3.org/2000/svg" xmlns:xlink="http://www.w3.org/1999/xlink" x="0px" y="0px"
	 viewBox="0 0 200 200" enable-background="new 0 0 200 200" xml:space="preserve">
<g>
	<g>
		<g>
			<g>
				<path fill="#FF7661" d="M147.5,51.6L121.1,78c-0.6,0.6,0.3,1.6,1,1l26.4-26.4C149,51.9,148.1,51,147.5,51.6z"/>
				<path fill="#FF7661" d="M169.1,30l-12.6,12.6c-0.6,0.6,0.3,1.6,1,1L170,30.9C170.6,30.3,169.7,29.4,169.1,30z"/>
			</g>
			<g>
				<path fill="#FF7661" d="M99.3,32.2v37.4c0,0.9,1.3,0.9,1.3,0V32.2C100.7,31.3,99.3,31.3,99.3,32.2z"/>
				<path fill="#FF7661" d="M99.3,1.7v17.8c0,0.9,1.3,0.9,1.3,0V1.7C100.7,0.8,99.3,0.8,99.3,1.7z"/>
			</g>
			<g>
				<path fill="#FF7661" d="M51.6,52.5L78,78.9c0.6,0.6,1.6-0.3,1-1L52.5,51.6C51.9,51,51,51.9,51.6,52.5z"/>
				<path fill="#FF7661" d="M30,30.9l12.6,12.6c0.6,0.6,1.6-0.3,1-1L30.9,30C30.3,29.4,29.4,30.3,30,30.9z"/>
			</g>
			<g>
				<path fill="#FF7661" d="M32.2,100.7h37.4c0.9,0,0.9-1.3,0-1.3H32.2C31.3,99.3,31.3,100.7,32.2,100.7z"/>
				<path fill="#FF7661" d="M1.7,100.7h17.8c0.9,0,0.9-1.3,0-1.3H1.7C0.8,99.3,0.8,100.7,1.7,100.7z"/>
			</g>
			<g>
				<path fill="#FF7661" d="M52.5,148.4L78.9,122c0.6-0.6-0.3-1.6-1-1l-26.4,26.4C51,148.1,51.9,149,52.5,148.4z"/>
				<path fill="#FF7661" d="M30.9,170l12.6-12.6c0.6-0.6-0.3-1.6-1-1L30,169.1C29.4,169.7,30.3,170.6,30.9,170z"/>
			</g>
			<g>
				<path fill="#FF7661" d="M100.7,167.8v-37.4c0-0.9-1.3-0.9-1.3,0v37.4C99.3,168.7,100.7,168.7,100.7,167.8z"/>
				<path fill="#FF7661" d="M100.7,198.3v-17.8c0-0.9-1.3-0.9-1.3,0v17.8C99.3,199.2,100.7,199.2,100.7,198.3z"/>
			</g>
			<g>
				<path fill="#FF7661" d="M148.4,147.5L122,121.1c-0.6-0.6-1.6,0.3-1,1l26.4,26.4C148.1,149,149,148.1,148.4,147.5z"/>
				<path fill="#FF7661" d="M170,169.1l-12.6-12.6c-0.6-0.6-1.6,0.3-1,1l12.6,12.6C169.7,170.6,170.6,169.7,170,169.1z"/>
			</g>
			<g>
				<path fill="#FF7661" d="M167.8,99.3h-37.4c-0.9,0-0.9,1.3,0,1.3h37.4C168.7,100.7,168.7,99.3,167.8,99.3z"/>
				<path fill="#FF7661" d="M198.3,99.3h-17.8c-0.9,0-0.9,1.3,0,1.3h17.8C199.2,100.7,199.2,99.3,198.3,99.3z"/>
			</g>
		</g>
		<g>
			<g>
				<path fill="#FF7661" d="M138.7,44.2L126,62c-0.5,0.7,0.6,1.5,1.1,0.8l12.6-17.9C140.3,44.2,139.2,43.5,138.7,44.2z"/>
				<path fill="#FF7661" d="M152.7,24.4l-6,8.5c-0.5,0.7,0.6,1.5,1.1,0.8l6-8.5C154.3,24.5,153.2,23.7,152.7,24.4z"/>
			</g>
			<g>
				<path fill="#FF7661" d="M87.9,33.2l3.7,21.6c0.1,0.9,1.5,0.6,1.3-0.2l-3.7-21.6C89,32.1,87.7,32.3,87.9,33.2z"/>
				<path fill="#FF7661" d="M83.8,9.3l1.8,10.3c0.1,0.9,1.5,0.6,1.3-0.2L85.1,9.1C85,8.2,83.6,8.4,83.8,9.3z"/>
			</g>
			<g>
				<path fill="#FF7661" d="M44.2,61.3L62,74c0.7,0.5,1.5-0.6,0.8-1.1L44.9,60.2C44.2,59.7,43.5,60.8,44.2,61.3z"/>
				<path fill="#FF7661" d="M24.4,47.3l8.5,6c0.7,0.5,1.5-0.6,0.8-1.1l-8.5-6C24.5,45.7,23.7,46.8,24.4,47.3z"/>
			</g>
			<g>
				<path fill="#FF7661" d="M33.2,112.1l21.6-3.7c0.9-0.1,0.6-1.5-0.2-1.3l-21.6,3.7C32.1,111,32.3,112.3,33.2,112.1z"/>
				<path fill="#FF7661" d="M9.3,116.2l10.3-1.8c0.9-0.1,0.6-1.5-0.2-1.3l-10.3,1.8C8.2,115,8.4,116.4,9.3,116.2z"/>
			</g>
			<g>
				<path fill="#FF7661" d="M61.3,155.8L74,138c0.5-0.7-0.6-1.5-1.1-0.8l-12.6,17.9C59.7,155.8,60.8,156.5,61.3,155.8z"/>
				<path fill="#FF7661" d="M47.3,175.6l6-8.5c0.5-0.7-0.6-1.5-1.1-0.8l-6,8.5C45.7,175.5,46.8,176.3,47.3,175.6z"/>
			</g>
			<g>
				<path fill="#FF7661" d="M112.1,166.8l-3.7-21.6c-0.1-0.9-1.5-0.6-1.3,0.2l3.7,21.6C111,167.9,112.3,167.7,112.1,166.8z"/>
				<path fill="#FF7661" d="M116.2,190.7l-1.8-10.3c-0.1-0.9-1.5-0.6-1.3,0.2l1.8,10.3C115,191.8,116.4,191.6,116.2,190.7z"/>
			</g>
			<g>
				<path fill="#FF7661" d="M155.8,138.7L138,126c-0.7-0.5-1.5,0.6-0.8,1.1l17.9,12.6C155.8,140.3,156.5,139.2,155.8,138.7z"/>
				<path fill="#FF7661" d="M175.6,152.7l-8.5-6c-0.7-0.5-1.5,0.6-0.8,1.1l8.5,6C175.5,154.3,176.3,153.2,175.6,152.7z"/>
			</g>
			<g>
				<path fill="#FF7661" d="M166.8,87.9l-21.6,3.7c-0.9,0.1-0.6,1.5,0.2,1.3l21.6-3.7C167.9,89,167.7,87.7,166.8,87.9z"/>
				<path fill="#FF7661" d="M190.7,83.8l-10.3,1.8c-0.9,0.1-0.6,1.5,0.2,1.3l10.3-1.8C191.8,85,191.6,83.6,190.7,83.8z"/>
			</g>
		</g>
		<g>
			<g>
				<path fill="#FF7661" d="M149.5,69.1l-8.3,5.1c-0.7,0.5,0,1.6,0.7,1.2l8.3-5.1C150.9,69.8,150.2,68.7,149.5,69.1z"/>
				<path fill="#FF7661" d="M169.9,56.7l-14.1,8.6c-0.7,0.5,0,1.6,0.7,1.2l14.1-8.6C171.3,57.4,170.6,56.3,169.9,56.7z"/>
			</g>
			<g>
				<path fill="#FF7661" d="M113.1,43.2l-2.3,9.5c-0.2,0.8,1.1,1.2,1.3,0.3l2.3-9.5C114.7,42.7,113.3,42.3,113.1,43.2z"/>
				<path fill="#FF7661" d="M118.8,20l-3.9,16c-0.2,0.8,1.1,1.2,1.3,0.3l3.9-16C120.3,19.5,119,19.1,118.8,20z"/>
			</g>
			<g>
				<path fill="#FF7661" d="M69.1,50.5l5.1,8.3c0.5,0.7,1.6,0,1.2-0.7l-5.1-8.3C69.8,49.1,68.7,49.8,69.1,50.5z"/>
				<path fill="#FF7661" d="M56.7,30.1l8.6,14.1c0.5,0.7,1.6,0,1.2-0.7l-8.6-14.1C57.4,28.7,56.3,29.4,56.7,30.1z"/>
			</g>
			<g>
				<path fill="#FF7661" d="M43.2,86.9l9.5,2.3c0.8,0.2,1.2-1.1,0.3-1.3l-9.5-2.3C42.7,85.3,42.3,86.7,43.2,86.9z"/>
				<path fill="#FF7661" d="M20,81.2l16,3.9c0.8,0.2,1.2-1.1,0.3-1.3l-16-3.9C19.5,79.7,19.1,81,20,81.2z"/>
			</g>
			<g>
				<path fill="#FF7661" d="M50.5,130.9l8.3-5.1c0.7-0.5,0-1.6-0.7-1.2l-8.3,5.1C49.1,130.2,49.8,131.3,50.5,130.9z"/>
				<path fill="#FF7661" d="M30.1,143.3l14.1-8.6c0.7-0.5,0-1.6-0.7-1.2l-14.1,8.6C28.7,142.6,29.4,143.7,30.1,143.3z"/>
			</g>
			<g>
				<path fill="#FF7661" d="M86.9,156.8l2.3-9.5c0.2-0.8-1.1-1.2-1.3-0.3l-2.3,9.5C85.3,157.3,86.7,157.7,86.9,156.8z"/>
				<path fill="#FF7661" d="M81.2,180l3.9-16c0.2-0.8-1.1-1.2-1.3-0.3l-3.9,16C79.7,180.5,81,180.9,81.2,180z"/>
			</g>
			<g>
				<path fill="#FF7661" d="M130.9,149.5l-5.1-8.3c-0.5-0.7-1.6,0-1.2,0.7l5.1,8.3C130.2,150.9,131.3,150.2,130.9,149.5z"/>
				<path fill="#FF7661" d="M143.3,169.9l-8.6-14.1c-0.5-0.7-1.6,0-1.2,0.7l8.6,14.1C142.6,171.3,143.7,170.6,143.3,169.9z"/>
			</g>
			<g>
				<path fill="#FF7661" d="M156.8,113.1l-9.5-2.3c-0.8-0.2-1.2,1.1-0.3,1.3l9.5,2.3C157.3,114.7,157.7,113.3,156.8,113.1z"/>
				<path fill="#FF7661" d="M180,118.8l-16-3.9c-0.8-0.2-1.2,1.1-0.3,1.3l16,3.9C180.5,120.3,180.9,119,180,118.8z"/>
			</g>
		</g>
		<g>
			<g>
				<path fill="#FF7661" d="M158,78l-29.7,11c-0.8,0.3-0.3,1.6,0.5,1.3l29.7-11C159.3,79,158.9,77.7,158,78z"/>
				<path fill="#FF7661" d="M170.3,73.4l-6,2.2c-0.8,0.3-0.3,1.6,0.5,1.3l6-2.2C171.6,74.4,171.2,73.1,170.3,73.4z"/>
			</g>
			<g>
				<path fill="#FF7661" d="M125,43.2L111.8,72c-0.4,0.8,0.9,1.3,1.2,0.6l13.2-28.8C126.6,43,125.4,42.4,125,43.2z"/>
				<path fill="#FF7661" d="M130.5,31.3l-2.7,5.8c-0.4,0.8,0.9,1.3,1.2,0.6l2.7-5.8C132.1,31,130.8,30.5,130.5,31.3z"/>
			</g>
			<g>
				<path fill="#FF7661" d="M77.1,42l11,29.7c0.3,0.8,1.6,0.3,1.3-0.5l-11-29.7C78,40.7,76.7,41.1,77.1,42z"/>
				<path fill="#FF7661" d="M72.5,29.7l2.2,6c0.3,0.8,1.6,0.3,1.3-0.5l-2.2-6C73.4,28.4,72.2,28.8,72.5,29.7z"/>
			</g>
			<g>
				<path fill="#FF7661" d="M42.3,75L71,88.2c0.8,0.4,1.3-0.9,0.6-1.2L42.8,73.8C42,73.4,41.5,74.6,42.3,75z"/>
				<path fill="#FF7661" d="M30.3,69.5l5.8,2.7c0.8,0.4,1.3-0.9,0.6-1.2l-5.8-2.7C30.1,67.9,29.5,69.2,30.3,69.5z"/>
			</g>
			<g>
				<path fill="#FF7661" d="M41,122.9l29.7-11c0.8-0.3,0.3-1.6-0.5-1.3l-29.7,11C39.7,122,40.2,123.3,41,122.9z"/>
				<path fill="#FF7661" d="M28.7,127.5l6-2.2c0.8-0.3,0.3-1.6-0.5-1.3l-6,2.2C27.4,126.6,27.9,127.8,28.7,127.5z"/>
			</g>
			<g>
				<path fill="#FF7661" d="M74,157.7L87.2,129c0.4-0.8-0.9-1.3-1.2-0.6l-13.2,28.8C72.5,158,73.7,158.5,74,157.7z"/>
				<path fill="#FF7661" d="M68.6,169.7l2.7-5.8c0.4-0.8-0.9-1.3-1.2-0.6l-2.7,5.8C67,169.9,68.2,170.5,68.6,169.7z"/>
			</g>
			<g>
				<path fill="#FF7661" d="M122,159l-11-29.7c-0.3-0.8-1.6-0.3-1.3,0.5l11,29.7C121,160.3,122.3,159.8,122,159z"/>
				<path fill="#FF7661" d="M126.6,171.3l-2.2-6c-0.3-0.8-1.6-0.3-1.3,0.5l2.2,6C125.6,172.6,126.9,172.1,126.6,171.3z"/>
			</g>
			<g>
				<path fill="#FF7661" d="M156.8,126L128,112.8c-0.8-0.4-1.3,0.9-0.6,1.2l28.8,13.2C157,127.5,157.6,126.3,156.8,126z"/>
				<path fill="#FF7661" d="M168.7,131.4l-5.8-2.7c-0.8-0.4-1.3,0.9-0.6,1.2l5.8,2.7C169,133,169.5,131.8,168.7,131.4z"/>
			</g>
		</g>
	</g>
	<path fill="#FF7661" d="M101.2,85.7l3.8,7.8c0.2,0.4,0.6,0.7,1,0.7l8.6,1.2c1.1,0.2,1.5,1.5,0.7,2.3l-6.2,6
		c-0.3,0.3-0.5,0.7-0.4,1.2l1.5,8.5c0.2,1.1-1,1.9-1.9,1.4l-7.7-4c-0.4-0.2-0.9-0.2-1.2,0l-7.7,4c-1,0.5-2.1-0.3-1.9-1.4l1.5-8.5
		c0.1-0.4-0.1-0.9-0.4-1.2l-6.2-6c-0.8-0.8-0.4-2.1,0.7-2.3l8.6-1.2c0.4-0.1,0.8-0.3,1-0.7l3.8-7.8C99.3,84.7,100.7,84.7,101.2,85.7
		z"/>
</g>
</svg>
