<?xml version="1.0" encoding="utf-8"?>
<!-- Generator: Adobe Illustrator 21.1.0, SVG Export Plug-In . SVG Version: 6.00 Build 0)  -->
<svg version="1.1" id="Layer_1" xmlns="http://www.w3.org/2000/svg" xmlns:xlink="http://www.w3.org/1999/xlink" x="0px" y="0px"
	 viewBox="0 0 40 40" enable-background="new 0 0 40 40" xml:space="preserve">
<path fill="#FF7661" d="M21.5,1.9l4.9,9.9c0.2,0.5,0.7,0.8,1.3,0.9l10.9,1.6c1.4,0.2,1.9,1.9,0.9,2.9l-7.9,7.7
	c-0.4,0.4-0.6,0.9-0.5,1.5L33,37.1c0.2,1.4-1.2,2.4-2.5,1.8l-9.7-5.1c-0.5-0.3-1.1-0.3-1.6,0l-9.7,5.1c-1.2,0.7-2.7-0.4-2.5-1.8
	l1.9-10.8c0.1-0.5-0.1-1.1-0.5-1.5l-7.9-7.7c-1-1-0.4-2.7,0.9-2.9l10.9-1.6c0.6-0.1,1-0.4,1.3-0.9l4.9-9.9
	C19.1,0.6,20.9,0.6,21.5,1.9z"/>
</svg>
