<?xml version="1.0" encoding="utf-8"?>
<!-- Generator: Adobe Illustrator 21.1.0, SVG Export Plug-In . SVG Version: 6.00 Build 0)  -->
<svg version="1.1" id="Layer_1" xmlns="http://www.w3.org/2000/svg" xmlns:xlink="http://www.w3.org/1999/xlink" x="0px" y="0px"
	 viewBox="0 0 200 200" enable-background="new 0 0 200 200" xml:space="preserve">
<g>
	<path fill="#FF7661" d="M100.2,43.6c-0.2,0-0.3,0-0.5-0.1L38.2,24.2c-0.7-0.2-1.2-0.9-1.2-1.6c0-0.7,0.5-1.4,1.2-1.6L97.6,1.6
		c0.3-0.1,0.7-0.1,1,0l60.5,18.5c0.7,0.2,1.2,0.9,1.2,1.6c0,0.7-0.5,1.4-1.1,1.6l-58.4,20.2C100.6,43.5,100.4,43.6,100.2,43.6z
		 M44.3,22.5l56,17.6l53-18.3L98.2,5L44.3,22.5z"/>
	<g>
		<path fill="#FF7661" d="M99.2,135.9C74.9,135.9,55,116,55,91.6c0-11.6,4.5-22.6,12.6-30.9c0.7-0.7,1.7-0.7,2.4,0
			c0.7,0.7,0.7,1.7,0,2.4c-7.5,7.7-11.6,17.8-11.6,28.5c0,22.5,18.3,40.8,40.8,40.8s40.8-18.3,40.8-40.8c0-10.9-4.2-21.1-11.9-28.8
			c-0.7-0.7-0.7-1.7,0-2.4c0.7-0.7,1.7-0.7,2.4,0c8.3,8.3,12.9,19.4,12.9,31.2C143.5,116,123.6,135.9,99.2,135.9z"/>
		<path fill="#FF7661" d="M174.7,198.5c-0.6,0-1.2-0.4-1.5-1c-16.6-34.9-44-55.7-73.2-55.7c-29.2,0-56.6,20.8-73.2,55.7
			c-0.4,0.8-1.4,1.2-2.3,0.8c-0.8-0.4-1.2-1.4-0.8-2.3C41,160,69.5,138.4,100,138.4s59,21.6,76.3,57.7c0.4,0.8,0,1.9-0.8,2.3
			C175.2,198.4,175,198.5,174.7,198.5z"/>
		<path fill="#FF7661" d="M146.4,198.5c-0.9,0-1.7-0.8-1.7-1.7v-13.2c0-0.9,0.8-1.7,1.7-1.7s1.7,0.8,1.7,1.7v13.2
			C148.1,197.7,147.3,198.5,146.4,198.5z"/>
		<path fill="#FF7661" d="M52.8,198.5c-0.9,0-1.7-0.8-1.7-1.7v-13.2c0-0.9,0.8-1.7,1.7-1.7s1.7,0.8,1.7,1.7v13.2
			C54.5,197.7,53.7,198.5,52.8,198.5z"/>
		<path fill="#FF7661" d="M100.2,75.9c-0.2,0-0.4,0-0.6-0.1L68.2,63.5c-0.9-0.3-1.3-1.3-1-2.2c0.3-0.9,1.3-1.3,2.2-1l30.7,12
			l28.5-12.2c0.9-0.4,1.9,0,2.2,0.9c0.4,0.9,0,1.9-0.9,2.2l-29.2,12.5C100.7,75.8,100.5,75.9,100.2,75.9z"/>
	</g>
	<path fill="#FF7661" d="M66.9,65.4c-0.9,0-1.7-0.8-1.7-1.7V31.8c0-0.9,0.8-1.7,1.7-1.7c0.9,0,1.7,0.8,1.7,1.7v31.9
		C68.6,64.7,67.8,65.4,66.9,65.4z"/>
	<path fill="#FF7661" d="M131.6,65.4c-0.9,0-1.7-0.8-1.7-1.7V31.8c0-0.9,0.8-1.7,1.7-1.7c0.9,0,1.7,0.8,1.7,1.7v31.9
		C133.3,64.7,132.5,65.4,131.6,65.4z"/>
	<path fill="#FF7661" d="M45.3,54.7H34.2c-0.6,0-1.2-0.4-1.5-0.9c-0.3-0.6-0.2-1.3,0.1-1.8l5.5-7.7c0.6-0.9,2.1-0.9,2.8,0l5.5,7.7
		c0.4,0.5,0.4,1.2,0.1,1.8C46.5,54.3,45.9,54.7,45.3,54.7z M37.5,51.2h4.4l-2.2-3.1L37.5,51.2z"/>
	<path fill="#FF7661" d="M39.7,46.9c-0.9,0-1.7-0.8-1.7-1.7V23.4c0-0.9,0.8-1.7,1.7-1.7s1.7,0.8,1.7,1.7v21.9
		C41.4,46.2,40.7,46.9,39.7,46.9z"/>
	<path fill="none" stroke="#FF7661" stroke-width="2" stroke-linecap="round" stroke-linejoin="round" stroke-miterlimit="10" d="
		M108.6,84.6"/>
</g>
</svg>
