<?xml version="1.0" encoding="utf-8"?>
<!-- Generator: Adobe Illustrator 21.1.0, SVG Export Plug-In . SVG Version: 6.00 Build 0)  -->
<svg version="1.1" id="Layer_1" xmlns="http://www.w3.org/2000/svg" xmlns:xlink="http://www.w3.org/1999/xlink" x="0px" y="0px"
	 viewBox="0 0 200 200" enable-background="new 0 0 200 200" xml:space="preserve">
<g>
	<path fill="#FF7661" d="M99.8,48.5c-13,0-23.5-10.5-23.5-23.5S86.9,1.5,99.8,1.5S123.3,12,123.3,25S112.8,48.5,99.8,48.5z
		 M99.8,4.3c-11.4,0-20.8,9.3-20.8,20.8s9.3,20.8,20.8,20.8s20.8-9.3,20.8-20.8S111.3,4.3,99.8,4.3z"/>
	<g>
		<path fill="#FF7661" d="M131.1,81.1H68.9c-0.8,0-1.4-0.6-1.4-1.4s0.6-1.4,1.4-1.4h62.3c0.8,0,1.4,0.6,1.4,1.4
			S131.9,81.1,131.1,81.1z"/>
		<path fill="#FF7661" d="M151.5,112h-11.3c-0.8,0-1.4-0.6-1.4-1.4c0-0.8,0.6-1.4,1.4-1.4h10.4l10-28.1h-29.4
			c-0.8,0-1.4-0.6-1.4-1.4s0.6-1.4,1.4-1.4h31.3c0.4,0,0.9,0.2,1.1,0.6c0.3,0.4,0.3,0.8,0.2,1.3l-11,30.9
			C152.6,111.6,152.1,112,151.5,112z"/>
		<path fill="#FF7661" d="M59.8,112H49.2c-0.6,0-1.1-0.4-1.3-0.9L36.3,80.2c-0.2-0.4-0.1-0.9,0.2-1.3c0.3-0.4,0.7-0.6,1.1-0.6h31.3
			c0.8,0,1.4,0.6,1.4,1.4s-0.6,1.4-1.4,1.4H39.5l10.6,28.1h9.7c0.8,0,1.4,0.6,1.4,1.4C61.2,111.4,60.6,112,59.8,112z"/>
		<path fill="#FF7661" d="M135.5,96.2H64.5c-0.8,0-1.4-0.6-1.4-1.4s0.6-1.4,1.4-1.4h70.9c0.8,0,1.4,0.6,1.4,1.4
			S136.2,96.2,135.5,96.2z"/>
		<path fill="#FF7661" d="M140.2,112c-0.8,0-1.4-0.6-1.4-1.4V96.2h-3.3c-0.8,0-1.4-0.6-1.4-1.4s0.6-1.4,1.4-1.4h4.7
			c0.8,0,1.4,0.6,1.4,1.4v15.8C141.5,111.4,140.9,112,140.2,112z"/>
		<path fill="#FF7661" d="M59.8,112c-0.8,0-1.4-0.6-1.4-1.4V94.9c0-0.8,0.6-1.4,1.4-1.4h4.7c0.8,0,1.4,0.6,1.4,1.4s-0.6,1.4-1.4,1.4
			h-3.3v14.4C61.2,111.4,60.6,112,59.8,112z"/>
		<path fill="#FF7661" d="M140.2,198.5H59.8c-0.8,0-1.4-0.6-1.4-1.4v-86.5c0-0.8,0.6-1.4,1.4-1.4s1.4,0.6,1.4,1.4v85.1h77.5v-85.1
			c0-0.8,0.6-1.4,1.4-1.4c0.8,0,1.4,0.6,1.4,1.4v86.5C141.5,197.9,140.9,198.5,140.2,198.5z"/>
		<path fill="#FF7661" d="M139.1,81.1c-0.5,0-1-0.3-1.2-0.8c-8.6-18-22.7-28.7-37.7-28.7c-15,0-29.1,10.7-37.7,28.7
			c-0.3,0.7-1.2,1-1.8,0.7c-0.7-0.3-1-1.1-0.7-1.8c9.1-19,24.1-30.3,40.1-30.3c16.1,0,31.1,11.3,40.1,30.3c0.3,0.7,0,1.5-0.7,1.8
			C139.5,81.1,139.3,81.1,139.1,81.1z"/>
		<g>
			<path fill="#FF7661" d="M124.4,81.1c-0.8,0-1.4-0.6-1.4-1.4v-6.9c0-0.8,0.6-1.4,1.4-1.4s1.4,0.6,1.4,1.4v6.9
				C125.7,80.5,125.1,81.1,124.4,81.1z"/>
			<path fill="#FF7661" d="M75.6,81.1c-0.8,0-1.4-0.6-1.4-1.4v-6.9c0-0.8,0.6-1.4,1.4-1.4s1.4,0.6,1.4,1.4v6.9
				C77,80.5,76.4,81.1,75.6,81.1z"/>
		</g>
	</g>
</g>
</svg>
