<?xml version="1.0" encoding="utf-8"?>
<!-- Generator: Adobe Illustrator 21.1.0, SVG Export Plug-In . SVG Version: 6.00 Build 0)  -->
<svg version="1.1" id="Layer_1" xmlns="http://www.w3.org/2000/svg" xmlns:xlink="http://www.w3.org/1999/xlink" x="0px" y="0px"
	 viewBox="0 0 200 200" enable-background="new 0 0 200 200" xml:space="preserve">
<g>
	<g>
		<g>
			<g>
				<path fill="#FF7661" d="M139.3,138.5H60.4c-0.4,0-0.7-0.3-0.7-0.7V132c0-0.4,0.3-0.7,0.7-0.7h78.8c0.4,0,0.7,0.3,0.7,0.7v5.9
					C139.9,138.2,139.6,138.5,139.3,138.5z M61.1,137.2h77.5v-4.6H61.1V137.2z"/>
			</g>
			<g>
				<path fill="#FF7661" d="M134.1,132.7H65.6c-0.4,0-0.7-0.3-0.7-0.7v-5.9c0-0.4,0.3-0.7,0.7-0.7h68.5c0.4,0,0.7,0.3,0.7,0.7v5.9
					C134.7,132.4,134.4,132.7,134.1,132.7z M66.3,131.4h67.1v-4.6H66.3V131.4z"/>
			</g>
			<g>
				<path fill="#FF7661" d="M138.2,84.8C138.2,84.8,138.2,84.8,138.2,84.8H61.5c-0.3,0-0.6-0.2-0.6-0.5c-0.1-0.3,0-0.6,0.3-0.7
					l38.3-22.1c0.2-0.1,0.5-0.1,0.7,0l38.3,22c0.3,0.1,0.4,0.3,0.4,0.6C138.9,84.5,138.6,84.8,138.2,84.8z M64,83.5h71.8L99.8,62.9
					L64,83.5z"/>
			</g>
			<g>
				<path fill="#FF7661" d="M103.7,126.8h-7c-0.4,0-0.7-0.3-0.7-0.7V89c0-0.4,0.3-0.7,0.7-0.7h7c0.4,0,0.7,0.3,0.7,0.7v37.1
					C104.4,126.5,104.1,126.8,103.7,126.8z M97.4,125.5h5.7V89.7h-5.7V125.5z"/>
			</g>
			<g>
				<path fill="#FF7661" d="M77.9,126.8h-7c-0.4,0-0.7-0.3-0.7-0.7V89c0-0.4,0.3-0.7,0.7-0.7h7c0.4,0,0.7,0.3,0.7,0.7v37.1
					C78.6,126.5,78.3,126.8,77.9,126.8z M71.6,125.5h5.7V89.7h-5.7V125.5z"/>
			</g>
			<g>
				<path fill="#FF7661" d="M129.5,126.8h-7c-0.4,0-0.7-0.3-0.7-0.7V89c0-0.4,0.3-0.7,0.7-0.7h7c0.4,0,0.7,0.3,0.7,0.7v37.1
					C130.2,126.5,129.9,126.8,129.5,126.8z M123.2,125.5h5.7V89.7h-5.7V125.5z"/>
			</g>
			<g>
				<path fill="#FF7661" d="M80.4,89.7H68.4c-0.4,0-0.7-0.3-0.7-0.7v-4.9c0-0.4,0.3-0.7,0.7-0.7h11.9c0.4,0,0.7,0.3,0.7,0.7V89
					C81,89.4,80.7,89.7,80.4,89.7z M69.1,88.4h10.6v-3.5H69.1V88.4z"/>
			</g>
			<g>
				<path fill="#FF7661" d="M106.2,89.7H94.3c-0.4,0-0.7-0.3-0.7-0.7v-4.9c0-0.4,0.3-0.7,0.7-0.7h11.9c0.4,0,0.7,0.3,0.7,0.7V89
					C106.8,89.4,106.5,89.7,106.2,89.7z M94.9,88.4h10.6v-3.5H94.9V88.4z"/>
			</g>
			<g>
				<path fill="#FF7661" d="M132,89.7h-11.9c-0.4,0-0.7-0.3-0.7-0.7v-4.9c0-0.4,0.3-0.7,0.7-0.7H132c0.4,0,0.7,0.3,0.7,0.7V89
					C132.6,89.4,132.3,89.7,132,89.7z M120.7,88.4h10.6v-3.5h-10.6V88.4z"/>
			</g>
			<g>
				<path fill="#FF7661" d="M99.8,79.1c-2.8,0-5-2.2-5-5c0-2.8,2.2-5,5-5c2.8,0,5,2.2,5,5C104.8,76.9,102.6,79.1,99.8,79.1z
					 M99.8,70.4c-2,0-3.7,1.7-3.7,3.7c0,2,1.7,3.7,3.7,3.7c2,0,3.7-1.7,3.7-3.7C103.5,72.1,101.9,70.4,99.8,70.4z"/>
			</g>
		</g>
	</g>
	<g>
		<path fill="#FF7661" d="M71.1,102.5H2.2c-0.2,0-0.4-0.1-0.6-0.3c-0.1-0.2-0.1-0.4-0.1-0.6l3.2-7.4c0.1-0.2,0.4-0.4,0.6-0.4h65.7
			c0.4,0,0.7,0.3,0.7,0.7v7.4C71.7,102.2,71.4,102.5,71.1,102.5z M3.2,101.1h67.2v-6H5.8L3.2,101.1z"/>
		<path fill="#FF7661" d="M59.7,136.6H7.3c-0.4,0-0.7-0.3-0.7-0.7v-34.1c0-0.4,0.3-0.7,0.7-0.7s0.7,0.3,0.7,0.7v33.4h51.7
			c0.4,0,0.7,0.3,0.7,0.7S60.1,136.6,59.7,136.6z"/>
		<path fill="#FF7661" d="M24.7,112.6H12.8c-0.4,0-0.7-0.3-0.7-0.7v-6.4c0-0.4,0.3-0.7,0.7-0.7h11.9c0.4,0,0.7,0.3,0.7,0.7v6.4
			C25.4,112.3,25.1,112.6,24.7,112.6z M13.5,111.2H24v-5H13.5V111.2z"/>
		<path fill="#FF7661" d="M44.9,112.6H33c-0.4,0-0.7-0.3-0.7-0.7v-6.4c0-0.4,0.3-0.7,0.7-0.7h11.9c0.4,0,0.7,0.3,0.7,0.7v6.4
			C45.5,112.3,45.2,112.6,44.9,112.6z M33.7,111.2h10.5v-5H33.7V111.2z"/>
		<path fill="#FF7661" d="M65,112.6H53.2c-0.4,0-0.7-0.3-0.7-0.7v-6.4c0-0.4,0.3-0.7,0.7-0.7H65c0.4,0,0.7,0.3,0.7,0.7v6.4
			C65.7,112.3,65.4,112.6,65,112.6z M53.8,111.2h10.5v-5H53.8V111.2z"/>
		<path fill="#FF7661" d="M24.7,123.2H12.8c-0.4,0-0.7-0.3-0.7-0.7v-6.4c0-0.4,0.3-0.7,0.7-0.7h11.9c0.4,0,0.7,0.3,0.7,0.7v6.4
			C25.4,122.9,25.1,123.2,24.7,123.2z M13.5,121.9H24v-5H13.5V121.9z"/>
		<path fill="#FF7661" d="M44.9,123.2H33c-0.4,0-0.7-0.3-0.7-0.7v-6.4c0-0.4,0.3-0.7,0.7-0.7h11.9c0.4,0,0.7,0.3,0.7,0.7v6.4
			C45.5,122.9,45.2,123.2,44.9,123.2z M33.7,121.9h10.5v-5H33.7V121.9z"/>
		<path fill="#FF7661" d="M65,123.2H53.2c-0.4,0-0.7-0.3-0.7-0.7v-6.4c0-0.4,0.3-0.7,0.7-0.7H65c0.4,0,0.7,0.3,0.7,0.7v6.4
			C65.7,122.9,65.4,123.2,65,123.2z M53.8,121.9h10.5v-5H53.8V121.9z"/>
	</g>
	<g>
		<path fill="#FF7661" d="M197.8,102.5h-68.3c-0.4,0-0.7-0.3-0.7-0.7v-7.4c0-0.4,0.3-0.7,0.7-0.7h65.2c0.3,0,0.5,0.2,0.6,0.4
			l3.2,7.4c0.1,0.2,0.1,0.5-0.1,0.6C198.3,102.4,198,102.5,197.8,102.5z M130.1,101.1h66.6l-2.6-6h-64.1V101.1z"/>
		<path fill="#FF7661" d="M192.7,136.6h-52.4c-0.4,0-0.7-0.3-0.7-0.7s0.3-0.7,0.7-0.7H192v-33.4c0-0.4,0.3-0.7,0.7-0.7
			s0.7,0.3,0.7,0.7v34.1C193.4,136.3,193,136.6,192.7,136.6z"/>
		<path fill="#FF7661" d="M187.2,112.6h-11.9c-0.4,0-0.7-0.3-0.7-0.7v-6.4c0-0.4,0.3-0.7,0.7-0.7h11.9c0.4,0,0.7,0.3,0.7,0.7v6.4
			C187.8,112.3,187.5,112.6,187.2,112.6z M176,111.2h10.5v-5H176V111.2z"/>
		<path fill="#FF7661" d="M167,112.6h-11.9c-0.4,0-0.7-0.3-0.7-0.7v-6.4c0-0.4,0.3-0.7,0.7-0.7H167c0.4,0,0.7,0.3,0.7,0.7v6.4
			C167.7,112.3,167.4,112.6,167,112.6z M155.8,111.2h10.5v-5h-10.5V111.2z"/>
		<path fill="#FF7661" d="M146.8,112.6H135c-0.4,0-0.7-0.3-0.7-0.7v-6.4c0-0.4,0.3-0.7,0.7-0.7h11.9c0.4,0,0.7,0.3,0.7,0.7v6.4
			C147.5,112.3,147.2,112.6,146.8,112.6z M135.7,111.2h10.5v-5h-10.5V111.2z"/>
		<path fill="#FF7661" d="M187.2,123.2h-11.9c-0.4,0-0.7-0.3-0.7-0.7v-6.4c0-0.4,0.3-0.7,0.7-0.7h11.9c0.4,0,0.7,0.3,0.7,0.7v6.4
			C187.8,122.9,187.5,123.2,187.2,123.2z M176,121.9h10.5v-5H176V121.9z"/>
		<path fill="#FF7661" d="M167,123.2h-11.9c-0.4,0-0.7-0.3-0.7-0.7v-6.4c0-0.4,0.3-0.7,0.7-0.7H167c0.4,0,0.7,0.3,0.7,0.7v6.4
			C167.7,122.9,167.4,123.2,167,123.2z M155.8,121.9h10.5v-5h-10.5V121.9z"/>
		<path fill="#FF7661" d="M146.8,123.2H135c-0.4,0-0.7-0.3-0.7-0.7v-6.4c0-0.4,0.3-0.7,0.7-0.7h11.9c0.4,0,0.7,0.3,0.7,0.7v6.4
			C147.5,122.9,147.2,123.2,146.8,123.2z M135.7,121.9h10.5v-5h-10.5V121.9z"/>
	</g>
</g>
</svg>
