<?xml version="1.0" encoding="utf-8"?>
<!-- Generator: Adobe Illustrator 21.1.0, SVG Export Plug-In . SVG Version: 6.00 Build 0)  -->
<svg version="1.1" id="Layer_1" xmlns="http://www.w3.org/2000/svg" xmlns:xlink="http://www.w3.org/1999/xlink" x="0px" y="0px"
	 viewBox="0 0 200 200" enable-background="new 0 0 200 200" xml:space="preserve">
<g>
	
		<circle fill="none" stroke="#FF7661" stroke-width="2" stroke-linecap="round" stroke-linejoin="round" stroke-miterlimit="10" cx="99.9" cy="39.6" r="17.8"/>
	<g>
		
			<line fill="none" stroke="#FF7661" stroke-width="2" stroke-linecap="round" stroke-linejoin="round" stroke-miterlimit="10" x1="74.9" y1="83.7" x2="125.1" y2="83.7"/>
		
			<polyline fill="none" stroke="#FF7661" stroke-width="2" stroke-linecap="round" stroke-linejoin="round" stroke-miterlimit="10" points="
			132.3,108.6 141.5,108.6 150.3,83.7 125.1,83.7 		"/>
		
			<polyline fill="none" stroke="#FF7661" stroke-width="2" stroke-linecap="round" stroke-linejoin="round" stroke-miterlimit="10" points="
			74.9,83.7 49.7,83.7 59.1,108.6 67.7,108.6 		"/>
		
			<line fill="none" stroke="#FF7661" stroke-width="2" stroke-linecap="round" stroke-linejoin="round" stroke-miterlimit="10" x1="128.6" y1="95.9" x2="71.4" y2="95.9"/>
		
			<polyline fill="none" stroke="#FF7661" stroke-width="2" stroke-linecap="round" stroke-linejoin="round" stroke-miterlimit="10" points="
			132.3,108.6 132.3,95.9 128.6,95.9 		"/>
		
			<polyline fill="none" stroke="#FF7661" stroke-width="2" stroke-linecap="round" stroke-linejoin="round" stroke-miterlimit="10" points="
			67.7,108.6 67.7,95.9 71.4,95.9 		"/>
		
			<polyline fill="none" stroke="#FF7661" stroke-width="2" stroke-linecap="round" stroke-linejoin="round" stroke-miterlimit="10" points="
			67.7,108.6 67.7,178.2 132.3,178.2 132.3,108.6 		"/>
		<path fill="none" stroke="#FF7661" stroke-width="2" stroke-linecap="round" stroke-linejoin="round" stroke-miterlimit="10" d="
			M68.8,83.7c6.8-14.4,18.3-23.8,31.3-23.8s24.5,9.4,31.3,23.8"/>
		<g>
			
				<line fill="none" stroke="#FF7661" stroke-width="2" stroke-linecap="round" stroke-linejoin="round" stroke-miterlimit="10" x1="119.6" y1="83.7" x2="119.6" y2="78.2"/>
			
				<line fill="none" stroke="#FF7661" stroke-width="2" stroke-linecap="round" stroke-linejoin="round" stroke-miterlimit="10" x1="80.4" y1="83.7" x2="80.4" y2="78.2"/>
		</g>
	</g>
</g>
</svg>
